<?xml version="1.0" encoding="utf-8"?>
<!-- Generator: Adobe Illustrator 15.0.0, SVG Export Plug-In . SVG Version: 6.00 Build 0)  -->
<!DOCTYPE svg PUBLIC "-//W3C//DTD SVG 1.1//EN" "http://www.w3.org/Graphics/SVG/1.1/DTD/svg11.dtd">
<svg version="1.1" id="Layer_1" xmlns="http://www.w3.org/2000/svg" xmlns:xlink="http://www.w3.org/1999/xlink" x="0px" y="0px"
	 width="500px" height="278.959px" viewBox="0 0 500 278.959" enable-background="new 0 0 500 278.959" xml:space="preserve">
<g id="Shape_25">
	<g>
		<path fill="#AEB9C2" d="M22.125,29.937c-0.679,0-1.238-0.502-1.338-1.154l-5.333-1.93v6.069c0,0.243,0.197,0.44,0.44,0.44h13.204
			c0.243,0,0.44-0.197,0.44-0.44v-6.339l-6.076,2.197C23.365,29.433,22.805,29.937,22.125,29.937z M29.099,23.411H15.895
			c-0.243,0-0.44,0.196-0.44,0.439v1.599l5.798,2.098c0.237-0.201,0.539-0.327,0.873-0.327c0.333,0,0.635,0.125,0.872,0.325
			l6.542-2.367V23.85C29.539,23.607,29.342,23.411,29.099,23.411z"/>
	</g>
</g>
<g id="Shape_26">
	<g>
		<path fill="#AEB9C2" d="M59.002,22.708v12.948h7.956V22.708H59.002z M61.945,23.703h2.053v1h-2.053V23.703z M62.828,34.969
			c-0.458,0-0.828-0.371-0.828-0.828c0-0.458,0.37-0.828,0.828-0.828c0.457,0,0.828,0.37,0.828,0.828
			C63.656,34.598,63.285,34.969,62.828,34.969z M66.036,32.695h-6.078V25.68h6.078V32.695z"/>
	</g>
</g>
<g id="Shape_85">
	<g>
		<polygon fill="#27BED1" points="100.337,24.545 102.909,29.047 106.339,24.545 		"/>
	</g>
</g>
<g id="Shape_85_copy_2">
	<g>
		<polygon fill="#A4A8AB" points="130.179,25.341 132.751,29.843 136.181,25.341 		"/>
	</g>
</g>
<g>
	<path fill="#79868F" d="M63.765,62.063c0.007,0.094,0.007,0.188,0.007,0.281c0,2.86-2.177,6.156-6.156,6.156
		c-1.226,0-2.365-0.355-3.322-0.971c0.174,0.02,0.341,0.027,0.522,0.027c1.011,0,1.942-0.342,2.686-0.925
		c-0.951-0.02-1.749-0.643-2.023-1.5c0.134,0.021,0.268,0.034,0.409,0.034c0.194,0,0.388-0.027,0.569-0.074
		c-0.992-0.201-1.735-1.072-1.735-2.124c0-0.006,0-0.02,0-0.027c0.288,0.161,0.623,0.261,0.978,0.275
		c-0.583-0.389-0.964-1.052-0.964-1.802c0-0.402,0.107-0.771,0.295-1.092c1.065,1.313,2.666,2.17,4.461,2.264
		c-0.033-0.161-0.053-0.328-0.053-0.496c0-1.192,0.964-2.164,2.164-2.164c0.623,0,1.186,0.261,1.581,0.683
		c0.489-0.094,0.958-0.274,1.374-0.522c-0.161,0.502-0.502,0.924-0.951,1.192c0.435-0.047,0.857-0.167,1.246-0.335
		C64.555,61.373,64.187,61.754,63.765,62.063z"/>
	<path fill="#79868F" d="M97.459,60.06h-1.052c-0.824,0-0.978,0.396-0.978,0.965v1.266h1.963l-0.261,1.982H95.43v5.084h-2.05v-5.084
		h-1.708v-1.982h1.708v-1.46c0-1.695,1.039-2.619,2.552-2.619c0.724,0,1.346,0.054,1.527,0.081V60.06z"/>
	<path fill="#79868F" d="M124.564,61.493h-0.014c-0.744,0-1.219-0.509-1.219-1.146c0-0.649,0.496-1.146,1.246-1.146
		c0.757,0,1.226,0.496,1.232,1.146C125.816,60.984,125.334,61.493,124.564,61.493z M125.669,69.036h-2.21v-6.639h2.21V69.036z
		 M133.62,69.036h-2.204v-3.55c0-0.891-0.322-1.5-1.119-1.5c-0.61,0-0.971,0.408-1.132,0.804c-0.053,0.147-0.074,0.341-0.074,0.542
		v3.705h-2.204c0.027-6.016,0-6.639,0-6.639h2.204v0.965h-0.013c0.288-0.456,0.811-1.119,2.003-1.119
		c1.454,0,2.539,0.951,2.539,2.987V69.036z"/>
	<path fill="#79868F" d="M170.845,67.12c-0.141,0.656-0.663,1.139-1.293,1.212c-1.487,0.167-2.994,0.167-4.495,0.167
		s-3.008,0-4.495-0.167c-0.63-0.074-1.152-0.556-1.3-1.212c-0.208-0.931-0.208-1.949-0.208-2.907s0-1.976,0.214-2.907
		c0.147-0.656,0.663-1.139,1.293-1.212c1.487-0.167,2.994-0.167,4.495-0.167s3.008,0,4.495,0.167c0.63,0.074,1.152,0.556,1.3,1.212
		c0.208,0.931,0.208,1.949,0.208,2.907S171.06,66.189,170.845,67.12z M167.429,63.851l-3.43-2.144
		c-0.134-0.087-0.301-0.087-0.435-0.013c-0.134,0.074-0.221,0.221-0.221,0.375v4.287c0,0.154,0.087,0.301,0.221,0.375
		c0.067,0.034,0.134,0.054,0.208,0.054c0.081,0,0.161-0.02,0.228-0.067l3.43-2.144c0.127-0.074,0.201-0.214,0.201-0.362
		S167.556,63.925,167.429,63.851z"/>
	<path fill="#79868F" d="M203.488,66.611c0,0.409-0.121,0.811-0.322,1.159c-0.69,1.172-2.13,1.587-3.41,1.587
		c-1.004,0-2.244-0.261-2.8-1.199c-0.161-0.261-0.248-0.569-0.248-0.877c0-0.757,0.469-1.387,1.092-1.775
		c0.784-0.489,1.802-0.61,2.706-0.67c-0.234-0.308-0.422-0.583-0.422-0.985c0-0.214,0.06-0.382,0.141-0.569
		c-0.154,0.014-0.302,0.027-0.456,0.027c-1.306,0-2.351-0.951-2.351-2.284c0-0.737,0.348-1.46,0.904-1.943
		c0.723-0.623,1.748-0.871,2.679-0.871h2.8l-0.925,0.589H202c0.623,0.529,1.005,1.119,1.005,1.963c0,1.735-1.587,1.929-1.587,2.78
		C201.418,64.427,203.488,64.722,203.488,66.611z M202.537,67.18c0-0.904-0.898-1.454-1.547-1.922
		c-0.107-0.013-0.214-0.013-0.322-0.013c-1.092,0-2.713,0.348-2.713,1.728c0,1.306,1.414,1.775,2.499,1.775
		C201.445,68.748,202.537,68.333,202.537,67.18z M201.404,62.498c0.275-0.295,0.355-0.67,0.355-1.065
		c0-0.992-0.583-2.673-1.789-2.673c-0.375,0-0.764,0.188-0.991,0.482c-0.241,0.301-0.315,0.696-0.315,1.072
		c0,1.005,0.569,2.585,1.775,2.585C200.775,62.9,201.17,62.739,201.404,62.498z M207.306,62.88v0.724h-1.427v1.467h-0.703v-1.467
		h-1.42V62.88h1.42v-1.454h0.703v1.454H207.306z"/>
</g>
<g>
	<path fill="#A5B0B8" d="M25.743,70.215c-0.228,0-0.449-0.094-0.603-0.254l-2.297-2.291c-0.784,0.542-1.722,0.831-2.673,0.831
		c-2.606,0-4.716-2.11-4.716-4.716s2.11-4.716,4.716-4.716s4.716,2.11,4.716,4.716c0,0.951-0.288,1.889-0.831,2.673l2.297,2.297
		c0.154,0.154,0.248,0.375,0.248,0.603C26.601,69.826,26.212,70.215,25.743,70.215z M20.17,60.783c-1.655,0-3.001,1.346-3.001,3.001
		c0,1.655,1.346,3.001,3.001,3.001c1.655,0,3.001-1.346,3.001-3.001C23.171,62.129,21.825,60.783,20.17,60.783z"/>
</g>
<g>
	<path fill="#44C3D3" d="M64.052,102.063c0.007,0.094,0.007,0.188,0.007,0.281c0,2.86-2.177,6.156-6.156,6.156
		c-1.226,0-2.365-0.355-3.322-0.971c0.174,0.02,0.341,0.027,0.522,0.027c1.011,0,1.942-0.342,2.686-0.925
		c-0.951-0.02-1.749-0.643-2.023-1.5c0.134,0.021,0.268,0.034,0.409,0.034c0.194,0,0.388-0.027,0.569-0.074
		c-0.992-0.201-1.735-1.072-1.735-2.124c0-0.006,0-0.02,0-0.027c0.288,0.161,0.623,0.261,0.978,0.275
		c-0.583-0.389-0.964-1.052-0.964-1.802c0-0.402,0.107-0.771,0.295-1.092c1.065,1.313,2.666,2.17,4.461,2.264
		c-0.033-0.161-0.053-0.328-0.053-0.496c0-1.192,0.964-2.164,2.164-2.164c0.623,0,1.186,0.261,1.581,0.683
		c0.489-0.094,0.958-0.274,1.374-0.522c-0.161,0.502-0.502,0.924-0.951,1.192c0.435-0.047,0.857-0.167,1.246-0.335
		C64.842,101.373,64.474,101.754,64.052,102.063z"/>
	<path fill="#45C3D3" d="M97.747,100.06h-1.052c-0.824,0-0.978,0.396-0.978,0.965v1.266h1.963l-0.261,1.982h-1.702v5.084h-2.05
		v-5.084h-1.708v-1.982h1.708v-1.46c0-1.695,1.039-2.619,2.552-2.619c0.724,0,1.346,0.054,1.527,0.081L97.747,100.06L97.747,100.06z
		"/>
	<path fill="#45C3D3" d="M124.851,101.493h-0.014c-0.744,0-1.219-0.509-1.219-1.146c0-0.649,0.496-1.146,1.246-1.146
		c0.757,0,1.226,0.496,1.232,1.146C126.104,100.984,125.621,101.493,124.851,101.493z M125.956,109.036h-2.21v-6.639h2.21V109.036z
		 M133.907,109.036h-2.204v-3.55c0-0.891-0.322-1.5-1.119-1.5c-0.61,0-0.971,0.408-1.132,0.804
		c-0.053,0.147-0.074,0.341-0.074,0.542v3.705h-2.204c0.027-6.016,0-6.639,0-6.639h2.204v0.965h-0.013
		c0.288-0.456,0.811-1.119,2.003-1.119c1.454,0,2.539,0.951,2.539,2.987V109.036z"/>
	<path fill="#45C3D3" d="M171.132,107.12c-0.141,0.656-0.663,1.139-1.293,1.212c-1.487,0.167-2.994,0.167-4.495,0.167
		c-1.501,0-3.008,0-4.495-0.167c-0.63-0.074-1.152-0.556-1.3-1.212c-0.208-0.931-0.208-1.949-0.208-2.907s0-1.976,0.214-2.907
		c0.147-0.656,0.663-1.139,1.293-1.212c1.487-0.167,2.994-0.167,4.495-0.167c1.501,0,3.008,0,4.495,0.167
		c0.63,0.074,1.152,0.556,1.3,1.212c0.208,0.931,0.208,1.949,0.208,2.907S171.347,106.189,171.132,107.12z M167.716,103.851
		l-3.43-2.144c-0.134-0.087-0.301-0.087-0.435-0.013c-0.134,0.074-0.221,0.221-0.221,0.375v4.287c0,0.154,0.087,0.301,0.221,0.375
		c0.067,0.034,0.134,0.054,0.208,0.054c0.081,0,0.161-0.02,0.228-0.067l3.43-2.144c0.127-0.074,0.201-0.214,0.201-0.362
		S167.843,103.925,167.716,103.851z"/>
	<path fill="#45C3D3" d="M203.775,106.611c0,0.409-0.121,0.811-0.322,1.159c-0.69,1.172-2.13,1.587-3.41,1.587
		c-1.004,0-2.244-0.261-2.8-1.199c-0.161-0.261-0.248-0.569-0.248-0.877c0-0.757,0.469-1.387,1.092-1.775
		c0.784-0.489,1.802-0.61,2.706-0.67c-0.234-0.308-0.422-0.583-0.422-0.985c0-0.214,0.06-0.382,0.141-0.569
		c-0.154,0.014-0.302,0.027-0.456,0.027c-1.306,0-2.351-0.951-2.351-2.284c0-0.737,0.348-1.46,0.904-1.943
		c0.723-0.623,1.748-0.871,2.679-0.871h2.8l-0.925,0.589h-0.877c0.623,0.529,1.005,1.119,1.005,1.963
		c0,1.735-1.587,1.929-1.587,2.78C201.705,104.427,203.775,104.722,203.775,106.611z M202.824,107.18
		c0-0.904-0.898-1.454-1.547-1.922c-0.107-0.013-0.214-0.013-0.322-0.013c-1.092,0-2.713,0.348-2.713,1.728
		c0,1.306,1.414,1.775,2.499,1.775C201.732,108.748,202.824,108.333,202.824,107.18z M201.691,102.498
		c0.275-0.295,0.355-0.67,0.355-1.065c0-0.992-0.583-2.673-1.789-2.673c-0.375,0-0.764,0.188-0.991,0.482
		c-0.241,0.301-0.315,0.696-0.315,1.072c0,1.005,0.569,2.585,1.775,2.585C201.062,102.9,201.457,102.739,201.691,102.498z
		 M207.593,102.88v0.724h-1.427v1.467h-0.703v-1.467h-1.42v-0.724h1.42v-1.454h0.703v1.454H207.593z"/>
</g>
<g>
	<path fill="#41C3D3" d="M26.03,110.215c-0.228,0-0.449-0.094-0.603-0.254l-2.297-2.291c-0.784,0.542-1.722,0.831-2.673,0.831
		c-2.606,0-4.716-2.11-4.716-4.716s2.11-4.716,4.716-4.716s4.716,2.11,4.716,4.716c0,0.951-0.288,1.889-0.831,2.673l2.297,2.297
		c0.154,0.154,0.248,0.375,0.248,0.603C26.888,109.826,26.499,110.215,26.03,110.215z M20.457,100.783
		c-1.655,0-3.001,1.346-3.001,3.001c0,1.655,1.346,3.001,3.001,3.001c1.655,0,3.001-1.346,3.001-3.001
		C23.458,102.129,22.112,100.783,20.457,100.783z"/>
</g>
<g>
	<path fill="#E9F6FB" d="M353.458,48.979c-5.583,0-10.125-4.542-10.125-10.125s4.542-10.125,10.125-10.125
		s10.125,4.542,10.125,10.125S359.041,48.979,353.458,48.979z"/>
	<path fill="#3AC2D4" d="M353.458,29.229c5.308,0,9.625,4.318,9.625,9.625s-4.317,9.625-9.625,9.625
		c-5.309,0-9.625-4.318-9.625-9.625S348.149,29.229,353.458,29.229 M353.458,28.229c-5.868,0-10.625,4.757-10.625,10.625
		s4.757,10.625,10.625,10.625s10.625-4.757,10.625-10.625S359.326,28.229,353.458,28.229L353.458,28.229z"/>
</g>
<g id="Shape_4">
	<g>
		<rect x="299.674" y="46.422" fill="#E8F6F9" width="62.05" height="41.112"/>
	</g>
</g>
<g id="Shape_39">
	<g>
		<path fill="#3AC2D4" d="M351.17,51.063c-0.803,0-1.453,0.65-1.453,1.453c0,0.803,0.65,1.453,1.453,1.453s1.453-0.65,1.453-1.453
			C352.623,51.713,351.973,51.063,351.17,51.063z M356.672,51.063c-0.803,0-1.453,0.65-1.453,1.453c0,0.803,0.65,1.453,1.453,1.453
			s1.453-0.65,1.453-1.453C358.125,51.713,357.475,51.063,356.672,51.063z M345.46,51.063c-0.803,0-1.454,0.65-1.454,1.453
			c0,0.803,0.651,1.453,1.454,1.453s1.453-0.65,1.453-1.453C346.913,51.713,346.263,51.063,345.46,51.063z"/>
	</g>
</g>
<g id="Shape_37">
	<g>
		<rect x="304.229" y="59.021" fill="#99D9E5" width="16.021" height="17.11"/>
	</g>
</g>
<g id="Shape_38">
	<g>
		<path fill="#99D9E5" d="M323.281,59.03v2.063h31.969V59.03H323.281z M351.281,64.03h-28v2.063h28V64.03z M323.281,71.094h30.875
			V69.03h-30.875V71.094z"/>
	</g>
</g>
<g id="Shape_40">
	<g>
		<path fill="#57636B" d="M299.5,82.062v5.125h62.375v-5.125H299.5z M329.544,85.688c-0.807,0-1.461-0.645-1.461-1.438
			s0.654-1.438,1.461-1.438c0.81,0,1.462,0.645,1.462,1.438C331.005,85.043,330.351,85.688,329.544,85.688z"/>
	</g>
</g>
<g id="Shape_23">
	<g>
		<polygon fill="#FFFFFF" points="465.396,62.491 463.106,63.682 461.365,62.491 457.793,72.293 460.541,77.697 465.946,77.697 
			469.243,68.537 		"/>
	</g>
</g>
<g id="Shape_31">
	<g>
		<path fill="#B5C3CD" d="M475.574,138.632c-3.799,0-18.799,0.6-18.799,0.6s-2.4-0.8-5-2.8c-2.604-2-4.201-3.601-4.201-3.601
			l-3.398-0.399l-10.396-0.2c0,0-5-0.2-7.201,4.8l9.396,0.4c0,0,3.805-0.2,7,2.2c3.201,2.4,3.201,4.6,10.805,4.4
			c7.6-0.2,16.396-0.2,16.396-0.2s4-1.2,3.799,6.2c-0.195,7.398,0.805,19.8,0.805,19.8l5.6-26.8
			C480.375,143.032,479.375,138.632,475.574,138.632z"/>
	</g>
</g>
<g id="folder_copy">
	<g>
		<path fill="#57636B" d="M428.516,138.413l0.406-1.912c0.373-1.758,2.203-3.188,4.08-3.188h11.037c1.873,0,4.176,1.074,5.133,2.393
			l1.137,1.583c0.938,1.293,4.059,2.653,5.867,2.653h20c0.896,0,1.338,0.215,1.846,0.823c0.51,0.609,0.734,1.155,0.557,2.014
			l-5.204,32.318l1.798,1.23c0.002-0.008,0.005-0.014,0.006-0.021l5.4-33.527c0.291-1.362-0.063-2.389-0.865-3.354
			c-0.805-0.969-1.709-1.369-3.135-1.369h-20c-1.254,0-3.84-1.111-4.486-2.006l-1.137-1.582c-1.256-1.731-4.061-3.035-6.518-3.035
			h-11.031c-2.99,0-5.902,2.276-6.494,5.073l-0.104,0.482L428.516,138.413z"/>
	</g>
</g>
<g id="folder">
	<g>
		<path fill="#27BED1" d="M473.6,144.479c-1.012-1.023-1.998-1.446-3.424-1.446h-20c-1.256,0-4.076-1.177-4.912-2.122l-1.473-1.674
			c-1.621-1.83-4.697-3.21-7.154-3.21H425.6c-2.984,0-5.418,2.407-5.418,5.367l-0.027,33.231c0,2.938,2.036,5.407,5.021,5.407h45
			c2.988,0,5-2.064,5-5v-27.001C475.176,146.588,474.609,145.506,473.6,144.479z M473.176,175.033c0,1.845-1.123,2.999-3,2.999h-45
			c-1.879,0-3.012-1.561-3.012-3.406l0.031-33.23c0-1.857,1.523-3.374,3.4-3.374h11.037c1.873,0,4.404,1.136,5.643,2.53l1.473,1.674
			c1.209,1.368,4.615,2.811,6.428,2.811h20c0.896,0,1.383,0.229,2.021,0.867c0.635,0.646,0.979,1.226,0.979,2.133V175.033
			L473.176,175.033z M468.168,163.031h-8.986c-0.553,0-1,0.45-1,1.006c0,0.554,0.447,1.004,1,1.004h8.986c0.553,0,1-0.45,1-1.004
			C469.168,163.481,468.721,163.031,468.168,163.031z M468.168,167.021h-13.99c-0.553,0-1,0.451-1,1.004
			c0,0.561,0.447,1.012,1,1.012h13.99c0.553,0,1-0.451,1-1.012C469.168,167.472,468.721,167.021,468.168,167.021z M468.168,171.042
			h-13.99c-0.553,0-1,0.441-1,0.99c0,0.546,0.447,0.988,1,0.988h13.99c0.553,0,1-0.442,1-0.988
			C469.168,171.483,468.721,171.042,468.168,171.042z"/>
	</g>
</g>
<g id="Shape_95">
	<g>
		<path fill="#FFFFFF" d="M220.275,149.185c-0.495,0-0.896,0.404-0.896,0.885c0,0.506,0.4,0.896,0.896,0.896
			c0.493,0,0.896-0.393,0.896-0.896C221.171,149.589,220.768,149.185,220.275,149.185z M220.531,150.667l-0.256-0.482h-0.185v0.482
			h-0.238v-1.259h0.316c0.185,0,0.248,0,0.328,0.032c0.23,0.078,0.252,0.275,0.252,0.351c0,0.019-0.005,0.063-0.015,0.104
			c-0.007,0.052-0.043,0.146-0.152,0.219c-0.015,0.008-0.022,0.017-0.059,0.031l0.294,0.521L220.531,150.667L220.531,150.667z
			 M150.796,150.776h-5.604c-1.807,0-3.277,1.455-3.277,3.236c0,1.799,1.471,3.254,3.277,3.254h5.604c1.809,0,3.28-1.455,3.28-3.254
			C154.077,152.231,152.605,150.776,150.796,150.776z M220.168,149.614h-0.078v0.367h0.168c0.075,0,0.158-0.01,0.211-0.086
			c0.015-0.028,0.027-0.063,0.027-0.107c0-0.066-0.036-0.126-0.093-0.146C220.353,149.614,220.29,149.614,220.168,149.614z
			 M134.944,143.948v20.104h89.025v-20.104H134.944z M150.937,159.035l-5.876-0.001c-2.79,0-5.055-2.247-5.055-5.021
			c0-2.764,2.265-5.013,5.055-5.013h5.876c2.792,0,5.049,2.249,5.049,5.013C155.986,156.787,153.729,159.035,150.937,159.035z
			 M168.548,159.034h-2.83l-5.799-5.021h5.478c0.901,0,1.633-0.72,1.633-1.617c0-0.896-0.731-1.619-1.633-1.619h-6.432v8.261h-1.941
			V149h8.502c1.896,0,3.42,1.524,3.42,3.396c0,1.869-1.524,3.396-3.42,3.396h-0.883L168.548,159.034z M181.36,159.034l-1.068-1.771
			h-5.259l-1.147-1.771h5.193l-2.739-4.376l-5.035,7.918l-2.293,0.001l6.126-9.517c0.268-0.375,0.709-0.619,1.202-0.619
			c0.476,0,0.917,0.229,1.173,0.606l6.149,9.525L181.36,159.034L181.36,159.034z M193.708,159.034h-5.994
			c-2.793,0-5.05-2.247-5.05-5.021c0-2.764,2.257-5.013,5.05-5.013h6.981l-1.143,1.774h-5.71c-1.804,0-3.271,1.457-3.271,3.238
			c0,1.799,1.467,3.252,3.271,3.252h7.015L193.708,159.034z M205.597,159.034h-8.859c-0.269,0-0.519-0.104-0.71-0.288
			c-0.189-0.181-0.286-0.421-0.286-0.666V149h1.941v8.267h9.068L205.597,159.034z M217.356,159.034h-6
			c-2.79,0-5.048-2.247-5.048-5.021c0-2.764,2.258-5.013,5.048-5.013h6.986l-1.142,1.774h-5.711c-1.5,0-2.761,0.996-3.151,2.358
			h9.463l-1.145,1.771h-8.316c0.395,1.365,1.651,2.361,3.149,2.361h7.003L217.356,159.034z M220.275,151.203
			c-0.631,0-1.134-0.505-1.134-1.127c0-0.624,0.503-1.127,1.134-1.127c0.622,0,1.14,0.503,1.14,1.127
			C221.415,150.698,220.897,151.203,220.275,151.203z"/>
	</g>
</g>
<g enable-background="new    ">
	<path fill="#FFFFFF" d="M231.373,149.622l1.406-0.137c0.084,0.472,0.256,0.818,0.515,1.04s0.608,0.332,1.047,0.332
		c0.465,0,0.816-0.099,1.052-0.295c0.236-0.197,0.354-0.428,0.354-0.691c0-0.169-0.05-0.313-0.149-0.432
		c-0.099-0.119-0.272-0.223-0.52-0.311c-0.169-0.059-0.555-0.163-1.157-0.313c-0.775-0.192-1.318-0.428-1.631-0.708
		c-0.439-0.394-0.659-0.874-0.659-1.44c0-0.364,0.104-0.705,0.31-1.023c0.207-0.316,0.504-0.559,0.894-0.725
		s0.858-0.249,1.409-0.249c0.898,0,1.575,0.197,2.029,0.591s0.692,0.92,0.715,1.577l-1.445,0.063
		c-0.062-0.368-0.194-0.633-0.398-0.793c-0.204-0.162-0.509-0.242-0.916-0.242c-0.42,0-0.749,0.086-0.986,0.259
		c-0.153,0.11-0.229,0.259-0.229,0.444c0,0.169,0.072,0.314,0.215,0.435c0.182,0.153,0.625,0.313,1.328,0.479
		s1.223,0.338,1.56,0.515c0.337,0.178,0.601,0.42,0.791,0.729c0.19,0.307,0.286,0.688,0.286,1.14c0,0.41-0.114,0.794-0.342,1.152
		s-0.55,0.624-0.967,0.798c-0.417,0.175-0.936,0.262-1.558,0.262c-0.905,0-1.6-0.209-2.085-0.627
		C231.757,151.032,231.467,150.423,231.373,149.622z"/>
	<path fill="#FFFFFF" d="M238.399,146.063v-1.27h1.372v1.27H238.399z M238.399,151.951v-5.186h1.372v5.186H238.399z"/>
	<path fill="#FFFFFF" d="M241.177,151.951v-7.158h1.372v7.158H241.177z"/>
	<path fill="#FFFFFF" d="M245.381,151.951l-2.09-5.186h1.44l0.977,2.646l0.283,0.884c0.075-0.225,0.122-0.373,0.142-0.444
		c0.045-0.146,0.094-0.293,0.146-0.439l0.986-2.646h1.411l-2.061,5.186H245.381z"/>
	<path fill="#FFFFFF" d="M252.52,150.301l1.367,0.229c-0.176,0.501-0.453,0.883-0.832,1.146c-0.379,0.262-0.854,0.393-1.424,0.393
		c-0.901,0-1.568-0.295-2.001-0.884c-0.342-0.472-0.513-1.067-0.513-1.787c0-0.859,0.225-1.532,0.674-2.019
		c0.449-0.487,1.017-0.73,1.704-0.73c0.771,0,1.381,0.255,1.826,0.764c0.446,0.51,0.66,1.29,0.641,2.342h-3.438
		c0.01,0.407,0.12,0.724,0.332,0.949c0.211,0.227,0.475,0.34,0.791,0.34c0.215,0,0.395-0.059,0.541-0.176
		S252.445,150.562,252.52,150.301z M252.598,148.914c-0.01-0.397-0.111-0.699-0.307-0.906c-0.195-0.206-0.434-0.31-0.713-0.31
		c-0.3,0-0.547,0.109-0.742,0.327s-0.292,0.515-0.289,0.889H252.598z"/>
	<path fill="#FFFFFF" d="M256.393,151.951h-1.373v-5.186h1.275v0.737c0.218-0.349,0.414-0.578,0.588-0.688s0.372-0.166,0.594-0.166
		c0.313,0,0.613,0.086,0.902,0.259l-0.424,1.196c-0.231-0.149-0.446-0.225-0.645-0.225c-0.192,0-0.355,0.053-0.488,0.158
		c-0.134,0.106-0.238,0.298-0.315,0.574s-0.114,0.856-0.114,1.738V151.951z"/>
</g>
<g enable-background="new    ">
	<path fill="#FFFFFF" d="M231.739,162.951v-7.158h2.319c0.879,0,1.452,0.036,1.719,0.107c0.41,0.107,0.753,0.341,1.03,0.701
		c0.277,0.359,0.415,0.824,0.415,1.394c0,0.439-0.08,0.809-0.239,1.108s-0.362,0.535-0.608,0.705
		c-0.246,0.172-0.496,0.284-0.75,0.34c-0.345,0.068-0.845,0.103-1.499,0.103h-0.942v2.7H231.739z M233.184,157.004v2.031h0.791
		c0.57,0,0.951-0.037,1.143-0.112s0.343-0.192,0.452-0.352s0.164-0.345,0.164-0.557c0-0.261-0.077-0.476-0.229-0.645
		s-0.347-0.275-0.581-0.317c-0.172-0.032-0.519-0.049-1.04-0.049H233.184z"/>
	<path fill="#FFFFFF" d="M239.424,159.348l-1.245-0.225c0.14-0.501,0.381-0.872,0.723-1.113s0.85-0.361,1.523-0.361
		c0.612,0,1.068,0.072,1.367,0.217c0.299,0.146,0.51,0.329,0.632,0.553c0.122,0.223,0.183,0.632,0.183,1.228l-0.015,1.602
		c0,0.456,0.022,0.792,0.066,1.009c0.044,0.216,0.126,0.448,0.247,0.695h-1.357c-0.036-0.091-0.08-0.227-0.132-0.405
		c-0.023-0.081-0.039-0.135-0.049-0.161c-0.234,0.228-0.485,0.398-0.752,0.513s-0.552,0.171-0.854,0.171
		c-0.534,0-0.955-0.145-1.262-0.435s-0.461-0.656-0.461-1.099c0-0.293,0.07-0.555,0.21-0.783c0.14-0.23,0.336-0.406,0.588-0.527
		c0.252-0.123,0.616-0.229,1.091-0.32c0.641-0.12,1.085-0.232,1.333-0.337v-0.137c0-0.264-0.065-0.452-0.195-0.563
		c-0.13-0.113-0.376-0.169-0.737-0.169c-0.244,0-0.435,0.048-0.571,0.144C239.62,158.938,239.509,159.106,239.424,159.348z
		 M241.26,160.461c-0.176,0.059-0.454,0.129-0.835,0.21s-0.63,0.161-0.747,0.239c-0.179,0.127-0.269,0.288-0.269,0.483
		c0,0.192,0.072,0.358,0.215,0.498s0.326,0.21,0.547,0.21c0.248,0,0.483-0.081,0.708-0.244c0.166-0.124,0.275-0.275,0.327-0.454
		c0.036-0.117,0.054-0.34,0.054-0.669V160.461z"/>
	<path fill="#FFFFFF" d="M245.274,162.951h-1.372v-5.186h1.274v0.737c0.218-0.349,0.414-0.578,0.588-0.688s0.372-0.166,0.593-0.166
		c0.313,0,0.614,0.086,0.903,0.259l-0.425,1.196c-0.231-0.149-0.446-0.225-0.645-0.225c-0.192,0-0.355,0.053-0.488,0.158
		c-0.133,0.106-0.238,0.298-0.315,0.574s-0.115,0.856-0.115,1.738V162.951z"/>
	<path fill="#FFFFFF" d="M250.23,157.766v1.094h-0.938v2.09c0,0.423,0.009,0.67,0.027,0.74c0.018,0.069,0.059,0.127,0.122,0.173
		s0.141,0.068,0.232,0.068c0.127,0,0.311-0.044,0.552-0.132l0.117,1.064c-0.319,0.137-0.68,0.205-1.084,0.205
		c-0.248,0-0.47-0.041-0.669-0.125c-0.199-0.082-0.344-0.189-0.437-0.322c-0.093-0.131-0.157-0.31-0.193-0.534
		c-0.029-0.159-0.044-0.481-0.044-0.967v-2.261h-0.63v-1.094h0.63v-1.03l1.377-0.801v1.831H250.23z"/>
	<path fill="#FFFFFF" d="M255.898,162.951h-1.371v-2.646c0-0.56-0.029-0.922-0.088-1.086c-0.059-0.165-0.154-0.293-0.286-0.384
		s-0.29-0.137-0.476-0.137c-0.238,0-0.451,0.065-0.641,0.195c-0.188,0.13-0.318,0.303-0.388,0.518s-0.104,0.612-0.104,1.191v2.349
		h-1.373v-5.186h1.275v0.762c0.452-0.586,1.021-0.879,1.709-0.879c0.303,0,0.579,0.055,0.83,0.164
		c0.25,0.108,0.439,0.248,0.568,0.417s0.219,0.361,0.269,0.576s0.075,0.522,0.075,0.923V162.951z"/>
	<path fill="#FFFFFF" d="M260.293,161.301l1.367,0.229c-0.176,0.501-0.453,0.883-0.832,1.146c-0.379,0.262-0.854,0.393-1.424,0.393
		c-0.901,0-1.568-0.295-2.002-0.884c-0.342-0.472-0.512-1.067-0.512-1.787c0-0.859,0.225-1.532,0.674-2.019
		c0.449-0.487,1.017-0.73,1.703-0.73c0.771,0,1.381,0.255,1.826,0.764c0.446,0.51,0.66,1.29,0.641,2.342h-3.438
		c0.01,0.407,0.12,0.724,0.332,0.949c0.211,0.227,0.475,0.34,0.791,0.34c0.215,0,0.395-0.059,0.541-0.176
		S260.219,161.562,260.293,161.301z M260.371,159.914c-0.01-0.397-0.111-0.699-0.307-0.906c-0.195-0.206-0.434-0.31-0.713-0.31
		c-0.3,0-0.547,0.109-0.742,0.327s-0.292,0.515-0.289,0.889H260.371z"/>
	<path fill="#FFFFFF" d="M264.166,162.951h-1.373v-5.186h1.275v0.737c0.218-0.349,0.414-0.578,0.588-0.688s0.372-0.166,0.594-0.166
		c0.313,0,0.613,0.086,0.902,0.259l-0.424,1.196c-0.231-0.149-0.446-0.225-0.645-0.225c-0.192,0-0.355,0.053-0.488,0.158
		c-0.134,0.106-0.238,0.298-0.315,0.574s-0.114,0.856-0.114,1.738V162.951z"/>
</g>
<g id="Shape_96">
	<g>
		<path fill="#FFFFFF" d="M26.274,132.015c-1.477,3.023-2.953,6.049-4.429,9.072c-0.01,0.018-0.019,0.036-0.027,0.055
			c-0.09-3.034-0.179-6.063-0.269-9.101c-2.191-0.009-4.384-0.018-6.575-0.026c-1.227,5.511-2.452,11.023-3.678,16.534v0.026h4.831
			c0.716-2.916,1.432-5.834,2.147-8.75c0.071,2.916,0.144,5.834,0.215,8.75h3.382c1.468-2.891,2.935-5.779,4.402-8.669v-0.054H26.3
			c-0.644,2.879-1.288,5.762-1.933,8.643v0.08h4.805c1.217-5.52,2.434-11.041,3.65-16.561L26.274,132.015L26.274,132.015z
			 M38.433,132.015h-4.482c-0.197,0.895-0.395,1.789-0.591,2.684h4.455L38.433,132.015z M33.011,136.256
			c-0.922,4.097-1.844,8.195-2.766,12.293c1.494,0.009,2.989,0.019,4.482,0.026c0.904-4.105,1.808-8.215,2.711-12.319H33.011z
			 M44.632,144.04c-0.559,0.582-0.706,1.326-1.529,1.664c-1.776,0.729-2.415-1.314-2.094-2.872c0.33-1.595,1.056-3.003,2.281-3.703
			c1.184-0.677,2.484,0.3,2.04,1.718h4.644c0.025-3.777-3.424-5.729-7.435-4.725c-2.722,0.685-4.515,2.409-5.503,4.831
			c-0.278,0.685-0.701,1.825-0.537,2.846c0.369,2.283,0.814,3.505,2.47,4.481c1.183,0.699,3.467,0.873,5.1,0.431
			c2.562-0.696,4.355-2.243,5.181-4.671H44.632z M109.883,139.128h2.094c0.206-0.958,0.411-1.915,0.617-2.872H110.5
			c0.206-0.984,0.412-1.969,0.617-2.953v-0.026h-4.079c-0.215,0.975-0.43,1.95-0.645,2.926c-0.167,0.147-2.196,0.06-2.604,0.054
			c0.198-1.101,0.408-1.744,1.744-1.718c0.152-0.734,0.305-1.468,0.457-2.201v-0.135c-3.344-0.457-5.364,0.24-6.146,2.711
			c-0.128,0.403-0.316,0.859-0.35,1.343h-2.228c-0.206,0.912-0.411,1.825-0.617,2.737c-0.009,0.018-0.018,0.036-0.027,0.054
			c-0.467-2.314-4.061-3.892-7.166-3.113c-3,0.751-4.876,2.509-5.852,5.287c-0.548,1.563-0.496,3.834,0.269,5.127
			c1.231,2.086,4.385,3.31,7.649,2.281c2.908-0.912,4.721-3.064,5.396-6.227c0.225-1.053,0.085-2.418-0.242-3.25v-0.026h2.201
			c-0.671,3.142-1.342,6.28-2.013,9.421h4.375c0.697-3.141,1.396-6.279,2.094-9.421h2.415c-0.42,1.914-0.841,3.829-1.261,5.743
			c-0.25,0.979-0.299,2.175,0.241,2.872c0.857,1.106,3.396,0.854,5.153,0.752c0.232-0.938,0.466-1.879,0.698-2.818
			c-0.662,0.015-1.587,0.142-1.906-0.269c-0.106-0.645,0.115-1.229,0.242-1.745C109.24,142.151,109.561,140.64,109.883,139.128z
			 M92.625,141.758c-0.327,1.545-1.603,4.701-3.758,4.026c-1.052-0.33-1.39-1.824-1.047-3.194c0.358-1.429,1.017-2.852,2.094-3.569
			c0.259-0.173,0.555-0.207,0.859-0.35C92.417,138.644,92.99,140.036,92.625,141.758z M78.909,139.853h4.268
			c0.715-3.366-2.743-4.181-5.824-4.134c-0.269,0.018-0.537,0.036-0.806,0.054c-0.675,0.107-1.332,0.189-1.932,0.376
			c-2.104,0.652-4.373,3.223-2.443,5.663c0.713,0.9,2.102,1.399,3.383,1.722c1.019,0.253,2.338,0.245,2.522,1.313
			c0.177,1.022-1.312,1.486-2.362,1.287c-0.955-0.182-1.441-0.662-1.261-1.824h-8.16v-0.023c0.993-0.342,1.986-0.684,2.979-1.021
			c0.402-0.143,0.966-0.212,1.181-0.535c0.054-0.252,0.107-0.502,0.161-0.752c0.403-1.775-0.36-3.415-1.101-4.351
			c-1.315-1.664-4.809-2.435-7.435-1.422c-0.911,0.351-1.638,0.82-2.335,1.368c-0.353,0.277-0.849,0.631-1.047,1.047
			c-0.027,0.019-0.054,0.036-0.081,0.054c0.215-0.858,0.43-1.718,0.645-2.576c-1.456-0.001-2.542,0.348-3.382,0.966
			c-0.232,0.224-0.466,0.447-0.698,0.671c0.099-0.474,0.197-0.948,0.296-1.422v-0.027h-4c-0.921,4.098-1.843,8.195-2.765,12.293
			h4.241c0.232-1.012,0.465-2.021,0.698-3.033c0.639-2.538,1.104-5.324,4.053-5.502c-0.334,0.792-0.613,1.617-0.806,2.577
			c-0.917,4.589,3.534,7.375,7.892,6.093c1.666-0.488,3.078-1.313,4.026-2.521c0.25-0.377,0.501-0.752,0.751-1.127v-0.056
			c0.027,0.313,0.054,0.626,0.081,0.938c0.205,0.813,0.665,1.453,1.261,1.88c2.047,1.457,6.695,1.493,9.153,0.401
			c0.837-0.373,1.599-1.076,2.066-1.826c0.265-0.424,0.464-0.959,0.591-1.502c0.102-0.437,0.062-1.055-0.026-1.448
			c-0.437-1.96-1.9-2.429-3.812-2.899c-0.979-0.24-2.548-0.219-2.872-1.101c-0.527-1.433,3.589-1.808,2.898,0.376v0.027
			L78.909,139.853L78.909,139.853z M62.482,145.785c-1.037-0.324-1.333-1.812-1.02-3.142c0.331-1.406,0.974-2.808,1.986-3.542
			c0.289-0.211,0.611-0.264,0.966-0.43c1.663-0.027,2.216,1.407,1.853,3.141C65.947,143.337,64.607,146.449,62.482,145.785z"/>
	</g>
</g>
<g id="Shape_97">
	<g>
		<path fill="#FFFFFF" d="M63.056,153.569h-1.96v8.175h1.96V153.569z M83.71,153.595h-1.934v8.122h1.934V153.595z M71.849,158.572
			h2.991v-1.548h-2.991v-1.809h3.765c0.009-0.542,0.018-1.083,0.026-1.624h-5.802v8.122h2.011V158.572z M51.143,161.744h2.012
			v-6.524h1.985v-1.65h-5.982v1.65h1.985V161.744z M11.484,166.513h97.523c0.008-0.291,0.017-0.584,0.025-0.875
			c-32.513-0.01-65.035-0.019-97.549-0.027L11.484,166.513L11.484,166.513z M64.552,172.161c-0.363,0.224-0.557,0.609-0.825,0.929
			v0.052h-0.026c0.052-0.353,0.104-0.705,0.155-1.058H63.16c-0.293,1.701-0.585,3.403-0.877,5.104v0.078h0.799
			c0.213-1.531,0.534-5.156,2.476-4.668c0.294,0.071,0.563,0.332,0.646,0.616c0.149,0.521-0.073,1.122-0.155,1.55l-0.387,2.477
			v0.025h0.773c0.146-0.889,0.292-1.771,0.438-2.656c0.084-0.389,0.255-0.965,0.154-1.471
			C66.83,172.136,65.577,171.53,64.552,172.161z M61.225,170.743c-0.267,0.025-0.532,0.052-0.799,0.076
			c-0.061,0.422-0.12,0.844-0.181,1.265H59.42c-0.034,0.206-0.068,0.412-0.104,0.619h0.8c-0.244,0.744-0.808,3.722-0.335,4.306
			c0.354,0.438,1.171,0.334,1.856,0.311c0.034-0.225,0.068-0.444,0.104-0.67c-0.449,0.052-1.082,0.188-1.315-0.152
			c-0.151-0.225-0.063-0.727,0-1.01l0.489-2.729c0.16-0.146,0.886-0.063,1.161-0.051c0.034-0.198,0.068-0.396,0.103-0.597
			c-0.395-0.008-0.791-0.018-1.186-0.022C61.071,171.636,61.148,171.188,61.225,170.743z M96.346,160.093h-3.868v-1.754h3.043
			v-1.547h-3.043v-1.65h3.842l0.026-1.547h-5.854v8.122h5.854V160.093z M108.336,160.558c1.618-2.045,1.157-5.724-1.135-6.68
			c-1.1-0.459-3.024-0.298-4.538-0.283v8.122C105.072,161.731,107.287,161.884,108.336,160.558z M104.546,155.09
			c1.058-0.017,1.807,0.031,2.243,0.619c0.864,1.163,0.68,3.615-0.516,4.28c-0.411,0.229-1.09,0.217-1.728,0.205L104.546,155.09
			L104.546,155.09z M50.601,173.089c0.258,0.12,0.517,0.24,0.774,0.36c0.335-0.351,0.47-0.738,1.031-0.876
			c0.967-0.238,2.05,0.378,1.573,1.418c-0.262,0.226-1.154-0.012-1.548,0.052c-1.079,0.173-1.998,0.403-2.295,1.341
			c-0.41,1.297,0.774,2.285,2.063,1.985c0.708-0.165,0.963-0.61,1.418-1.007v-0.051h0.025c-0.047,0.252-0.176,0.647-0.051,0.898
			c0.116,0.105,0.586,0.063,0.799,0.055c0.018-1.134,0.745-3.564,0.413-4.387C54.16,171.296,51.225,171.823,50.601,173.089z
			 M53.902,174.688c-0.106,0.354-0.162,0.691-0.335,0.979c-0.3,0.495-1.386,1.5-2.269,0.93c-0.199-0.13-0.254-0.311-0.311-0.594
			c-0.208-1.059,0.91-1.097,1.625-1.367c0.43,0.01,0.859,0.018,1.289,0.025L53.902,174.688L53.902,174.688z M50.06,171.36
			c-0.676-1.354-2.202-1.131-4.178-1.107c-0.395,2.313-0.79,4.625-1.186,6.938v0.076h0.877c0.163-0.918,0.326-1.838,0.489-2.759
			c0.204-0.177,1.354,0.009,1.728-0.052c1.064-0.171,1.709-0.329,2.166-1.083c0.095-0.24,0.189-0.481,0.284-0.722
			C50.355,172.17,50.209,171.661,50.06,171.36z M49.338,172.444c-0.246,1.402-1.514,1.328-3.172,1.289
			c0.154-0.901,0.31-1.805,0.464-2.707c0.156-0.144,0.793-0.053,1.058-0.053C48.73,170.974,49.545,171.261,49.338,172.444z
			 M68.033,173.656c-1.389,3.522,2.796,5.079,4.203,2.397c-0.215-0.104-0.43-0.205-0.645-0.313c-0.328,0.271-0.5,0.691-0.928,0.877
			c-1.39,0.592-2.056-0.604-1.986-1.854h3.816C73.013,171.12,68.981,171.251,68.033,173.656z M68.781,174.121
			c0.246-1.747,2.98-2.406,2.914,0H68.781z M57.151,173.321c-0.017,0.009-0.034,0.018-0.051,0.025
			c0.085-0.412,0.172-0.824,0.258-1.238v-0.024h-0.852c-0.292,1.719-0.584,3.438-0.876,5.157v0.025h0.851
			c0.25-1.896,0.401-4.525,2.553-4.517c0.06-0.283,0.12-0.563,0.181-0.854h-0.413C58.007,172.233,57.432,172.509,57.151,173.321z
			 M74.505,173.295v0.052H74.48c0.077-0.422,0.154-0.843,0.231-1.264h-0.799c-0.284,1.729-0.567,3.455-0.852,5.184h0.8
			c0.077-0.422,0.154-0.843,0.232-1.264c0.306-1.572,0.487-3.262,2.372-3.25c0.043-0.273,0.086-0.55,0.129-0.824
			C75.445,171.619,74.95,172.761,74.505,173.295z M30.437,160.093h-3.868v-1.754h3.043v-1.547h-3.043v-1.65h3.843
			c0.008-0.516,0.017-1.031,0.025-1.547h-5.854v8.122h5.854V160.093z M16.487,161.563c1.065-0.459,1.585-1.383,1.831-2.687v-0.022
			c-0.628-0.033-1.256-0.067-1.883-0.104c-0.159,0.86-0.366,1.335-1.238,1.496c-0.404,0.075-0.818-0.054-1.057-0.231
			c-0.675-0.507-0.809-2.332-0.567-3.479c0.444-2.11,2.721-2.1,2.733,0.206c0.67-0.043,1.341-0.086,2.012-0.13
			c-0.144-2.266-2.261-3.971-4.797-2.889c-1.316,0.563-1.906,1.764-2.166,3.401C10.862,160.246,13.566,162.821,16.487,161.563z
			 M38.689,158.521h1.314c0.412,1.06,0.825,2.113,1.238,3.172c0.722,0.012,1.443,0.02,2.166,0.024
			c-0.499-1.194-0.998-2.39-1.496-3.584c0.375-0.325,0.789-0.44,1.058-0.877c0.154-0.251,0.253-0.594,0.31-0.929
			c0.086-0.514-0.076-0.997-0.207-1.314c-0.787-1.922-3.681-1.447-6.317-1.418v8.122h1.935L38.689,158.521L38.689,158.521z
			 M38.689,155.039c1.115-0.021,2.727-0.187,2.63,0.979c-0.104,1.246-1.281,1.107-2.63,1.084V155.039z"/>
	</g>
</g>
<g>
	<path fill="#E9F6FB" d="M328.458,38.479c-5.583,0-10.125-4.542-10.125-10.125s4.542-10.125,10.125-10.125
		s10.125,4.542,10.125,10.125S334.041,38.479,328.458,38.479z"/>
	<path fill="#3AC2D4" d="M328.458,18.729c5.308,0,9.625,4.318,9.625,9.625s-4.317,9.625-9.625,9.625
		c-5.309,0-9.625-4.318-9.625-9.625S323.149,18.729,328.458,18.729 M328.458,17.729c-5.868,0-10.625,4.757-10.625,10.625
		s4.757,10.625,10.625,10.625s10.625-4.757,10.625-10.625S334.326,17.729,328.458,17.729L328.458,17.729z"/>
</g>
<text transform="matrix(1 0 0 1 242.0718 34)" fill="#6A757D" font-family="'FontAwesome'" font-size="19"></text>
<text transform="matrix(1 0 0 1 243.4287 78)" fill="#6A757D" font-family="'FontAwesome'" font-size="19"></text>
<g id="PRINTER">
	<g>
		<path fill="#6A757D" d="M251.971,92.572h-0.031l0.031-1.999h-0.031v-0.001c-0.002-0.136-0.043-0.262-0.109-0.366
			c-0.002-0.002-0.467-0.003-0.469-0.005c-0.021-0.033-0.047-0.064-0.072-0.093l-0.001-0.001c-0.037-0.037,0.382-0.067,0.338-0.095
			c0,0-0.461,0-0.462-0.001c-0.063-0.037-0.131-0.066-0.202-0.082c-0.026-0.006-0.063-0.008-0.093-0.01
			c-0.016-0.001,0.438-0.004,0.422-0.004h-6.574c-0.271,0-0.41,0.167-0.51,0.405c-0.032,0.08-0.143,0.167-0.143,0.259v2.43h7.875
			L251.971,92.572z M245.043,103.388c0,0.366,0.292,0.664,0.652,0.664l5.592-0.031c0.359,0,0.652-0.298,0.652-0.664v-4.375h-6.896
			V103.388L245.043,103.388z M246.041,99.995h4.839v1.013h-4.839V99.995z M246.041,101.964h4.839v1.013h-4.839V101.964z
			 M254.307,93.924h-12.613c-0.36,0-0.652,0.297-0.652,0.664v5.761c0,0.366,0.292,0.663,0.652,0.663h2.421v-3.007h8.785v3.007h1.406
			c0.356,0,0.648-0.297,0.648-0.663v-5.761C254.958,94.221,254.666,93.924,254.307,93.924z M242.838,95.99
			c-0.271,0-0.49-0.225-0.49-0.5c0-0.275,0.22-0.499,0.49-0.499c0.271,0,0.49,0.224,0.49,0.499
			C243.328,95.765,243.109,95.99,242.838,95.99z M247.023,97.942h-1.056v-0.983h1.056V97.942z M247.023,95.977h-1.056v-0.982h1.056
			V95.977z M249.063,97.942h-1.056v-0.983h1.056V97.942z M249.063,95.977h-1.056v-0.982h1.056V95.977z M251.063,97.942h-1.055
			v-0.983h1.055V97.942z M251.063,95.977h-1.055v-0.982h1.055V95.977z"/>
	</g>
</g>
<g id="Shape_25_copy">
	<g>
		<path fill="#6A757D" d="M247.625,125.47c-0.68,0-1.239-0.502-1.338-1.154l-5.333-1.929v6.07c0,0.243,0.197,0.44,0.44,0.44h13.204
			c0.243,0,0.44-0.197,0.44-0.44v-6.339l-6.076,2.197C248.865,124.967,248.305,125.47,247.625,125.47z M254.6,118.943h-13.205
			c-0.243,0-0.44,0.197-0.44,0.44v1.599l5.798,2.098c0.237-0.201,0.539-0.327,0.873-0.327c0.333,0,0.635,0.125,0.872,0.325
			l6.542-2.367v-1.329C255.039,119.141,254.842,118.943,254.6,118.943z"/>
	</g>
</g>
<g id="Shape_76">
	<g>
		<polygon fill="#3AC2D4" points="331.966,30.375 332.106,30.232 331.815,29.941 331.866,29.891 325.86,23.884 325.81,23.936 
			325.519,23.645 323.563,25.727 323.853,26.019 323.801,26.068 329.808,32.075 330.149,32.314 330.291,32.173 332.526,32.688 
			332.729,32.484 		"/>
	</g>
</g>
<g id="Shape_77">
	<g>
		<path fill="#3AC2D4" d="M353.666,38.729v-4.742c-2.4,0.046-4.334,1.997-4.334,4.408c0,2.439,1.979,4.417,4.418,4.417
			c2.324,0,4.209-1.803,4.383-4.083H353.666z"/>
	</g>
</g>
<g>
	<path fill="#57636B" d="M360.75,47.396v39.167h-60.167V47.396H360.75 M361.25,45.896h-61.167c-0.554,0-1,0.448-1,1v40.167
		c0,0.552,0.446,1,1,1h61.167c0.553,0,1-0.448,1-1V46.896C362.25,46.344,361.803,45.896,361.25,45.896L361.25,45.896z"/>
</g>
<g>
	<path fill="#E9F6FB" d="M305.541,52.396c-5.583,0-10.125-4.542-10.125-10.125s4.542-10.125,10.125-10.125
		s10.125,4.542,10.125,10.125S311.124,52.396,305.541,52.396z"/>
	<path fill="#3AC2D4" d="M305.541,32.646c5.308,0,9.625,4.318,9.625,9.625s-4.317,9.625-9.625,9.625
		c-5.309,0-9.625-4.318-9.625-9.625S300.232,32.646,305.541,32.646 M305.541,31.646c-5.868,0-10.625,4.757-10.625,10.625
		s4.757,10.625,10.625,10.625s10.625-4.757,10.625-10.625S311.409,31.646,305.541,31.646L305.541,31.646z"/>
</g>
<g id="Shape_42">
	<g>
		<path fill="#3AC2D4" d="M299.266,46h2.914v-2.899h-2.914V46z M303.279,46.094h2.943v-5.031h-2.943V46.094z M307.256,39.125v6.969
			h2.946v-6.969H307.256z"/>
	</g>
</g>
<g>
	<path fill="#FFFFFF" d="M293.333,90.646c-1.24,0-2.25-1.009-2.25-2.25v-2h79.583v2c0,1.241-1.01,2.25-2.25,2.25H293.333z"/>
	<path fill="#57636B" d="M369.916,87.146v1.25c0,0.827-0.673,1.5-1.5,1.5h-75.083c-0.827,0-1.5-0.673-1.5-1.5v-1.25H369.916
		 M371.416,85.646h-81.083v2.75c0,1.657,1.343,3,3,3h75.083c1.657,0,3-1.343,3-3V85.646L371.416,85.646z"/>
</g>
<path fill="none" d="M422,46.354c0,0-2.25-2.625-2.625-6.375s-1-5.625,3.125-10s10.625-6.625,14.125-4.5s9.125,7,8.5,10.625
	s-2.875,10.75-2.875,10.75s-0.5-2.75-0.75-5.25s0-8.125-2.125-6.75s-6.25,3-10,1.125s-5.125-2.375-5.25-0.375
	s-0.375,8.125-0.625,8.75S422,46.354,422,46.354z"/>
<g>
	<g>
		<path fill="#FFFFFF" d="M464.284,57.345c-2.885,0-6.456-3.205-6.979-4.078c-0.032-0.061-0.212-0.467-0.323-2.533l-0.02-0.323
			l-0.279-0.163c-0.154-0.091-0.278-0.186-0.4-0.307c-0.783-0.784-1.709-2.749-1.313-4.66c0.084-0.398,0.273-0.546,0.701-0.546
			c0.146,0,0.312,0.02,0.492,0.059l0.719,0.155l0.007-0.736c0.021-2.102,0.068-3.72,0.068-3.72l0.002-0.058l-0.01-0.059
			c-0.002-0.01-0.162-1.008-0.08-2.56c0.047-0.882,1.755-2.178,2.994-2.847l3.023-0.655l7.173,0.957l-0.16,6.924l0.117,2.902
			l0.742-0.224c0.304-0.091,0.571-0.138,0.795-0.138c0.428,0,0.616,0.148,0.7,0.547c0.398,1.91-0.527,3.875-1.313,4.66
			c-0.115,0.115-0.235,0.208-0.389,0.298l-0.309,0.184c0,0,0.07,1.575,0.086,1.882c0.069,1.286-1.382,2.767-4.565,4.66
			C465.344,57.217,464.845,57.345,464.284,57.345L464.284,57.345z"/>
		<path fill="#3AC2D4" d="M462.912,34.923l6.536,0.872l-0.148,6.387l-0.001,0.04l0.001,0.04l0.087,2.087l0.063,1.548l1.48-0.448
			c0.311-0.093,0.511-0.113,0.622-0.113c0.042,0,0.074,0.003,0.098,0.006c0.006,0.016,0.011,0.037,0.017,0.063
			c0.349,1.672-0.479,3.443-1.147,4.112c-0.079,0.081-0.16,0.144-0.271,0.208l-0.615,0.367l0.03,0.716
			c0.03,0.678,0.056,1.221,0.071,1.531c0.054,1.009-1.386,2.393-4.273,4.11c-0.335,0.199-0.72,0.296-1.177,0.296
			c-2.583,0-5.901-2.919-6.444-3.753c-0.036-0.107-0.169-0.607-0.261-2.291l-0.035-0.647l-0.561-0.325
			c-0.111-0.064-0.194-0.128-0.278-0.211c-0.669-0.67-1.497-2.44-1.148-4.113c0.007-0.027,0.013-0.048,0.019-0.063
			c0.021-0.003,0.054-0.006,0.097-0.006c0.104,0,0.228,0.015,0.365,0.045l1.438,0.31l0.016-1.472
			c0.019-2.071,0.065-3.692,0.065-3.708l0.003-0.118l-0.019-0.113c-0.001-0.009-0.151-0.957-0.073-2.431
			c0.025-0.478,1.273-1.577,2.606-2.311L462.912,34.923 M462.863,33.706l-3.21,0.694c0,0-3.297,1.735-3.387,3.384
			c-0.087,1.649,0.09,2.69,0.09,2.69s-0.051,1.624-0.068,3.733c-0.206-0.044-0.416-0.072-0.618-0.072
			c-0.597,0-1.125,0.244-1.288,1.024c-0.434,2.083,0.521,4.251,1.477,5.207c0.181,0.18,0.354,0.303,0.522,0.401
			c0.076,1.392,0.203,2.466,0.409,2.809c0.647,1.08,4.4,4.369,7.494,4.369c0.636,0,1.243-0.139,1.79-0.464
			c3.21-1.909,4.945-3.558,4.856-5.206c-0.016-0.306-0.041-0.845-0.068-1.519c0.163-0.097,0.331-0.216,0.505-0.39
			c0.954-0.955,1.909-3.124,1.475-5.207c-0.163-0.78-0.688-1.024-1.287-1.024c-0.316,0-0.654,0.069-0.969,0.164
			c-0.05-1.226-0.087-2.09-0.087-2.09l0.174-7.462L462.863,33.706L462.863,33.706z"/>
	</g>
	<g id="Shape_30_3_">
		<g>
			<path fill="#33C1D3" d="M461.058,51.499c0,0-0.153,0.564-0.052,0.513c3.026,1.231,5.232,0.103,5.232,0.103s0-0.41,0-0.514
				C463.674,52.781,461.058,51.499,461.058,51.499z"/>
		</g>
	</g>
	<path fill="#B5C3CD" stroke="#546770" stroke-width="1.2" stroke-miterlimit="10" d="M456.616,44.466c0,0-2.519-5.727-1.648-7.896
		c0.868-2.169,4.426-5.9,6.073-6.942c1.648-1.041,5.033-1.302,6.941,0.694c1.907,1.996,5.117,3.905,4.339,7.722
		c-0.781,3.818-2.17,6.681-2.17,6.681s-0.435-2.516-0.348-3.297c0.086-0.781,0.348-3.124,0.173-3.731
		c-0.173-0.608-1.302-2.169-2.083-1.128c-0.778,1.041-3.988,1.475-5.379,0.694c-1.389-0.781-4.079-1.909-4.165-1.388
		c-0.087,0.521-0.521,5.206-0.779,6.334C457.311,43.337,456.616,44.466,456.616,44.466z"/>
	<g>
		<path fill="#E9F6FB" d="M443.53,72.517l1.009-5.822c0.002-0.001,0.767-3.203,3.686-4.781c2.521-1.363,6.487-3.529,8.075-4.396
			l3.632,15.397L443.53,72.517z"/>
		<g>
			<path fill="#3AC2D4" d="M455.896,58.421l3.271,13.875l-14.93-0.362l0.884-5.1c0.068-0.271,0.811-3,3.387-4.393
				C450.72,61.246,454.04,59.435,455.896,58.421 M456.703,56.613c0,0-5.554,3.037-8.764,4.772c-3.212,1.735-3.991,5.206-3.991,5.206
				L442.82,73.1l17.874,0.434L456.703,56.613L456.703,56.613z"/>
		</g>
	</g>
	<g>
		<path fill="#E9F6FB" d="M471.771,57.518c1.588,0.867,5.554,3.033,8.073,4.396c2.919,1.578,3.685,4.779,3.69,4.811l1.004,5.792
			l-16.401,0.398L471.771,57.518z"/>
		<g>
			<path fill="#3AC2D4" d="M472.174,58.421c1.856,1.014,5.176,2.825,7.387,4.02c2.555,1.38,3.319,4.14,3.387,4.395l0.885,5.098
				l-14.93,0.362L472.174,58.421 M471.367,56.613l-3.991,16.92L485.25,73.1l-1.129-6.508c0,0-0.78-3.471-3.99-5.206
				C476.921,59.65,471.367,56.613,471.367,56.613L471.367,56.613z"/>
		</g>
	</g>
	<polygon fill="#B5C3CD" stroke="#546770" stroke-width="1.2" stroke-miterlimit="10" points="463.905,58.869 466.855,62.687 
		464.772,64.943 466.508,73.273 461.215,73.186 462.689,65.03 460.348,62.774 	"/>
</g>
<g>
	<g>
		<path fill="#FFFFFF" d="M433.046,65.173c-4.056,0-9.354-4.459-10.281-6.002c-0.077-0.128-0.342-0.781-0.505-3.771l-0.018-0.322
			l-0.278-0.163c-0.248-0.145-0.443-0.294-0.634-0.484c-1.172-1.172-2.555-4.104-1.962-6.953c0.146-0.7,0.523-0.999,1.27-0.999
			c0.229,0,0.484,0.031,0.766,0.091l0.719,0.155l0.007-0.736c0.029-3.032,0.098-5.366,0.098-5.366l0.002-0.058l-0.01-0.058
			c-0.002-0.015-0.236-1.475-0.117-3.745c0.076-1.459,2.762-3.415,4.483-4.338l4.441-0.96l10.611,1.415L441.4,43.09l0.155,3.823
			l0.741-0.224c0.462-0.14,0.874-0.21,1.225-0.21c0.74,0,1.118,0.298,1.267,0.998c0.593,2.849-0.79,5.781-1.962,6.953
			c-0.186,0.184-0.372,0.329-0.61,0.471l-0.309,0.184c0,0,0.095,2.11,0.118,2.552c0.104,1.961-2.027,4.17-6.707,6.953
			C434.666,64.977,433.901,65.173,433.046,65.173L433.046,65.173z"/>
		<path fill="#3AC2D4" d="M431.049,32.072l9.979,1.33l-0.227,9.675l-0.001,0.039l0.001,0.039l0.125,3.011l0.064,1.546l1.479-0.447
			c0.4-0.121,0.766-0.185,1.05-0.185c0.488,0,0.6,0.13,0.681,0.52c0.548,2.63-0.724,5.33-1.799,6.407
			c-0.146,0.147-0.301,0.264-0.493,0.379l-0.616,0.367l0.031,0.717c0.044,0.976,0.08,1.756,0.104,2.198
			c0.089,1.691-2.01,3.786-6.415,6.406c-0.564,0.336-1.209,0.5-1.966,0.5c-3.959,0-9.058-4.529-9.756-5.692
			c-0.028-0.058-0.274-0.644-0.431-3.514l-0.035-0.645l-0.56-0.326c-0.202-0.118-0.357-0.238-0.512-0.391
			c-1.077-1.077-2.347-3.776-1.799-6.407c0.081-0.391,0.189-0.521,0.682-0.521c0.187,0,0.399,0.026,0.638,0.077l1.438,0.31
			l0.015-1.471c0.028-2.99,0.099-5.332,0.099-5.354l0.003-0.117l-0.021-0.113c-0.002-0.014-0.226-1.423-0.108-3.617
			c0.057-1.071,2.368-2.859,4.096-3.801L431.049,32.072 M431,30.854l-4.625,1c0,0-4.75,2.5-4.875,4.875s0.125,3.875,0.125,3.875
			s-0.068,2.34-0.098,5.378c-0.297-0.064-0.602-0.104-0.892-0.104c-0.859,0-1.622,0.351-1.854,1.476c-0.625,3,0.75,6.125,2.125,7.5
			c0.26,0.26,0.512,0.436,0.755,0.578c0.107,2.005,0.293,3.553,0.589,4.047c0.934,1.555,6.34,6.293,10.796,6.293
			c0.916,0,1.791-0.2,2.579-0.668c4.625-2.75,7.125-5.125,7-7.5c-0.023-0.44-0.06-1.217-0.103-2.188
			c0.233-0.14,0.478-0.312,0.728-0.562c1.375-1.375,2.75-4.5,2.125-7.5c-0.234-1.124-0.994-1.476-1.854-1.476
			c-0.461,0-0.946,0.1-1.396,0.236c-0.073-1.767-0.125-3.011-0.125-3.011l0.25-10.75L431,30.854L431,30.854z"/>
	</g>
	<g id="Shape_30_1_">
		<g>
			<path fill="#33C1D3" d="M428.398,56.486c0,0-0.226,0.813-0.074,0.739c4.356,1.773,7.538,0.147,7.538,0.147s0-0.591,0-0.739
				C432.168,58.334,428.398,56.486,428.398,56.486z"/>
		</g>
	</g>
	<path fill="#B5C3CD" stroke="#546770" stroke-width="1.2" stroke-miterlimit="10" d="M422,46.354c0,0-3.625-8.25-2.375-11.375
		s6.375-8.5,8.75-10s7.25-1.875,10,1s7.375,5.625,6.25,11.125s-3.125,9.625-3.125,9.625s-0.625-3.625-0.5-4.75s0.5-4.5,0.25-5.375
		s-1.875-3.125-3-1.625s-5.75,2.125-7.75,1s-5.875-2.75-6-2s-0.75,7.5-1.125,9.125S422,46.354,422,46.354z"/>
	<g>
		<path fill="#E9F6FB" d="M402.835,87.021l1.506-8.689c0.005-0.017,1.127-4.741,5.444-7.075c3.806-2.057,9.896-5.384,11.937-6.499
			l5.393,22.852L402.835,87.021z"/>
		<g>
			<path fill="#3AC2D4" d="M421.318,65.663l5.03,21.33l-22.806-0.554l1.381-7.965c0.089-0.353,1.232-4.574,5.146-6.688
				C413.493,69.935,418.819,67.028,421.318,65.663 M422.125,63.854c0,0-8,4.375-12.625,6.875c-4.624,2.5-5.75,7.5-5.75,7.5
				l-1.625,9.375l25.75,0.625L422.125,63.854L422.125,63.854z"/>
		</g>
	</g>
	<g>
		<path fill="#E9F6FB" d="M443.653,64.759c2.04,1.115,8.131,4.441,11.937,6.499c4.317,2.333,5.439,7.058,5.45,7.105l1.5,8.659
			l-24.277,0.589L443.653,64.759z"/>
		<g>
			<path fill="#3AC2D4" d="M444.057,65.663c2.499,1.365,7.825,4.272,11.248,6.123c3.921,2.119,5.063,6.354,5.146,6.688l1.381,7.966
				l-22.806,0.554L444.057,65.663 M443.25,63.854l-5.75,24.375l25.75-0.625l-1.625-9.375c0,0-1.126-5-5.75-7.5
				C451.25,68.229,443.25,63.854,443.25,63.854L443.25,63.854z"/>
		</g>
	</g>
	<polygon fill="#B5C3CD" stroke="#546770" stroke-width="1.2" stroke-miterlimit="10" points="432.5,67.104 436.75,72.604 
		433.75,75.854 436.25,87.854 428.625,87.729 430.75,75.979 427.375,72.729 	"/>
</g>
<g>
	<g>
		
			<line fill="none" stroke="#57636B" stroke-width="1.5" stroke-miterlimit="10" x1="292.625" y1="181.729" x2="303.25" y2="175.479"/>
		
			<line fill="none" stroke="#57636B" stroke-width="1.5" stroke-miterlimit="10" x1="303.5" y1="175.354" x2="308.625" y2="182.854"/>
		
			<line fill="none" stroke="#57636B" stroke-width="1.5" stroke-miterlimit="10" x1="308.75" y1="182.979" x2="316.125" y2="176.979"/>
		
			<line fill="none" stroke="#57636B" stroke-width="1.5" stroke-miterlimit="10" x1="316.25" y1="176.854" x2="321.875" y2="182.104"/>
		
			<line fill="none" stroke="#57636B" stroke-width="1.5" stroke-miterlimit="10" x1="321.875" y1="182.229" x2="328.75" y2="175.354"/>
	</g>
	<circle fill="#57636B" cx="303.125" cy="175.354" r="1.875"/>
	<circle fill="#57636B" cx="308.5" cy="182.354" r="1.875"/>
	<circle fill="#57636B" cx="316.25" cy="176.854" r="1.875"/>
	<circle fill="#57636B" cx="321.75" cy="181.604" r="1.875"/>
</g>
<g>
	<g>
		<path fill="#33C1D3" d="M338.837,153.569c0.779,0,1.413,0.635,1.413,1.414v33.742c0,0.777-0.634,1.412-1.413,1.412h-44.424
			c-0.779,0-1.413-0.635-1.413-1.412v-33.742c0-0.779,0.634-1.414,1.413-1.414H338.837 M338.837,152.069h-44.424
			c-1.608,0-2.913,1.305-2.913,2.914v33.742c0,1.607,1.305,2.912,2.913,2.912h44.424c1.609,0,2.913-1.305,2.913-2.912v-33.742
			C341.75,153.374,340.446,152.069,338.837,152.069L338.837,152.069z"/>
	</g>
	<g id="Shape_33">
		<g>
			<path fill="#27BED1" d="M303.611,155.683c-0.856,0-1.553,0.693-1.553,1.551c0,0.856,0.692,1.554,1.553,1.554
				c0.854,0,1.551-0.694,1.551-1.554C305.162,156.376,304.469,155.683,303.611,155.683z M309.633,155.683
				c-0.854,0-1.551,0.693-1.551,1.551c0,0.856,0.694,1.554,1.551,1.554c0.857,0,1.551-0.694,1.551-1.554
				C311.184,156.376,310.489,155.683,309.633,155.683z M297.591,155.683c-0.856,0-1.551,0.693-1.551,1.551
				c0,0.856,0.694,1.554,1.551,1.554c0.857,0,1.552-0.694,1.552-1.554C299.143,156.376,298.447,155.683,297.591,155.683z"/>
		</g>
	</g>
</g>
<g>
	<polygon fill="#FFFFFF" points="358.875,130.527 363.001,134.063 363.124,175.084 358.875,177.416 	"/>
	<path fill="#57636B" d="M359.625,132.158l2.627,2.251l0.12,40.232l-2.747,1.508V132.158 M358.125,128.897v49.786l5.75-3.154
		l-0.125-41.812L358.125,128.897L358.125,128.897z"/>
</g>
<g>
	<path fill="#33C1D3" d="M356.625,130.397v46.708H331.75v-46.708H356.625 M358.125,128.897H330.25v49.708h27.875V128.897
		L358.125,128.897z"/>
</g>
<g>
	<path fill="#27BED1" d="M57.88,227.868l14.296,11.048l11.618-13.229c-0.185-0.263-0.322-0.563-0.383-0.901
		c-0.22-1.237,0.604-2.416,1.839-2.64c1.235-0.221,2.415,0.604,2.635,1.836c0,1.236-0.603,2.416-1.838,2.639
		c-0.326,0.061-0.648,0.04-0.95-0.036l-12.202,13.896l-0.442,0.703l-14.234-11.007l-7.197,11.446l0.046,0.018l-0.868,1.381
		l-0.046-0.018l-0.018,0.027l-0.09-0.067l-11.237-4.198l-11.575,12.859l-1.244-0.963l11.935-13.262l0.072,0.057l0.357-0.566
		l11.17,4.174l6.818-10.846l1.423-2.425L57.88,227.868z"/>
	
		<rect x="60.917" y="242.125" fill="#B5C3CD" stroke="#57636B" stroke-width="1.5" stroke-miterlimit="10" width="7.25" height="20.688"/>
	
		<rect x="49.375" y="253.854" fill="#B5C3CD" stroke="#57636B" stroke-width="1.5" stroke-miterlimit="10" width="7.25" height="8.957"/>
	
		<rect x="26.876" y="257.001" fill="#B5C3CD" stroke="#57636B" stroke-width="1.5" stroke-miterlimit="10" width="7.25" height="5.813"/>
	
		<rect x="37.875" y="250.479" fill="#B5C3CD" stroke="#57636B" stroke-width="1.5" stroke-miterlimit="10" width="7.25" height="12.332"/>
</g>
<g>
	<g>
		<path fill="#33C1D3" d="M170.103,245.25l5.914,3.344l-4.585,9.521l-0.482-2.429l-0.348-1.754l-1.667,0.646l-4.477,1.74
			L170.103,245.25 M169.478,243.174l-8.144,15.972l8.144-3.166l1.356,6.834l7.144-14.834L169.478,243.174L169.478,243.174z"/>
	</g>
	<g>
		<path fill="#33C1D3" d="M187.53,245.25l5.646,11.071l-4.477-1.74l-1.667-0.646l-0.348,1.754l-0.482,2.429l-4.585-9.521
			L187.53,245.25 M188.155,243.174l-8.5,4.806l7.144,14.834l1.356-6.834l8.144,3.166L188.155,243.174L188.155,243.174z"/>
	</g>
	<g>
		<path fill="#B5C3CD" d="M191.584,236.499c0,1.172-1.183,2.172-1.472,3.253c-0.299,1.118,0.216,2.573-0.35,3.552
			c-0.575,0.993-2.099,1.271-2.905,2.077s-1.083,2.33-2.076,2.904c-0.979,0.565-2.435,0.051-3.552,0.35
			c-1.081,0.288-2.082,1.472-3.253,1.472s-2.172-1.184-3.252-1.472c-1.118-0.3-2.574,0.218-3.553-0.35
			c-0.993-0.575-1.271-2.101-2.076-2.905c-0.805-0.805-2.33-1.084-2.904-2.076c-0.566-0.979-0.051-2.435-0.35-3.552
			c-0.289-1.081-1.472-2.081-1.472-3.253s1.183-2.172,1.472-3.253c0.299-1.118-0.217-2.573,0.35-3.552
			c0.574-0.993,2.099-1.271,2.904-2.077c0.805-0.806,1.083-2.33,2.076-2.904c0.979-0.565,2.435-0.051,3.552-0.351
			c1.081-0.287,2.082-1.471,3.253-1.471s2.172,1.184,3.253,1.471c1.118,0.3,2.574-0.217,3.553,0.351
			c0.993,0.574,1.271,2.099,2.076,2.904c0.805,0.805,2.33,1.084,2.904,2.077c0.566,0.979,0.051,2.434,0.35,3.552
			C190.402,234.327,191.584,235.327,191.584,236.499z"/>
		<path fill="none" stroke="#57636B" stroke-width="1.5" stroke-miterlimit="10" d="M191.584,236.499
			c0,1.172-1.183,2.172-1.472,3.253c-0.299,1.118,0.216,2.573-0.35,3.552c-0.575,0.993-2.099,1.271-2.905,2.077
			s-1.083,2.33-2.076,2.904c-0.979,0.565-2.435,0.051-3.552,0.35c-1.081,0.288-2.082,1.472-3.253,1.472s-2.172-1.184-3.252-1.472
			c-1.118-0.3-2.574,0.218-3.553-0.35c-0.993-0.575-1.271-2.101-2.076-2.905c-0.805-0.805-2.33-1.084-2.904-2.076
			c-0.566-0.979-0.051-2.435-0.35-3.552c-0.289-1.081-1.472-2.081-1.472-3.253s1.183-2.172,1.472-3.253
			c0.299-1.118-0.217-2.573,0.35-3.552c0.574-0.993,2.099-1.271,2.904-2.077c0.805-0.806,1.083-2.33,2.076-2.904
			c0.979-0.565,2.435-0.051,3.552-0.351c1.081-0.287,2.082-1.471,3.253-1.471s2.172,1.184,3.253,1.471
			c1.118,0.3,2.574-0.217,3.553,0.351c0.993,0.574,1.271,2.099,2.076,2.904c0.805,0.805,2.33,1.084,2.904,2.077
			c0.566,0.979,0.051,2.434,0.35,3.552C190.402,234.327,191.584,235.327,191.584,236.499z"/>
	</g>
	<g id="Shape_61">
		<g>
			<polygon fill="#57636B" points="185.015,232.505 183.732,231.222 175.754,239.198 172.011,235.455 170.728,236.737 
				175.264,241.274 175.719,241.776 175.943,241.577 			"/>
		</g>
	</g>
</g>
<path fill="#E9F6FB" stroke="#33C1D3" stroke-width="1.5" stroke-miterlimit="10" d="M293.5,224.479l-23.125,24V263.5h16.75
	l22.125-23L293.5,224.479z M275.875,259.729c-1.104,0-2-0.896-2-2c0-1.104,0.896-2,2-2s2,0.896,2,2
	C277.875,258.833,276.979,259.729,275.875,259.729z"/>
<g enable-background="new    ">
	<path fill="#57636B" d="M297.068,240.642c0.566,0.691,0.773,1.453,0.617,2.283s-0.649,1.656-1.483,2.479l1.1,1.339l-0.895,0.733
		l-1.077-1.313c-1.08,0.85-2.165,1.426-3.255,1.73l-1.413-1.724c0.531-0.123,1.124-0.332,1.773-0.627
		c0.65-0.293,1.196-0.599,1.635-0.915l-1.659-2.023l-0.576,0.188c-1.142,0.368-2.053,0.5-2.737,0.396
		c-0.688-0.104-1.271-0.448-1.752-1.037c-0.519-0.631-0.697-1.352-0.537-2.164c0.159-0.812,0.646-1.625,1.459-2.436l-0.82-0.998
		l0.895-0.734l0.799,0.973c1.031-0.773,2.098-1.313,3.195-1.616l0.639,2.031c-0.906,0.276-1.742,0.681-2.506,1.203l1.579,1.927
		c1.116-0.37,1.952-0.583,2.509-0.638c0.555-0.056,1.034-0.009,1.438,0.142C296.396,239.992,296.755,240.259,297.068,240.642z
		 M289.311,240.541c0.155,0.192,0.352,0.296,0.588,0.312c0.233,0.015,0.553-0.033,0.955-0.146l-1.258-1.534
		C289.102,239.715,289.006,240.171,289.311,240.541z M295.186,242.351c-0.15-0.183-0.353-0.274-0.604-0.281
		c-0.251-0.004-0.58,0.048-0.985,0.156l1.334,1.625C295.438,243.265,295.523,242.765,295.186,242.351z"/>
</g>
<g>
	<g>
		<path fill="#FFFFFF" d="M378.413,244.077c-2.39,0-5.348-2.655-5.781-3.378c-0.017-0.03-0.174-0.354-0.269-2.099l-0.017-0.271
			l-0.23-0.138c-0.13-0.074-0.233-0.152-0.334-0.254c-0.648-0.648-1.415-2.276-1.086-3.858c0.066-0.328,0.226-0.45,0.578-0.45
			c0.118,0,0.257,0.018,0.405,0.051l0.602,0.129l0.006-0.613c0.017-1.741,0.056-3.084,0.056-3.086
			c-0.008-0.104-0.139-0.93-0.07-2.217c0.04-0.799,1.647-1.908,2.479-2.356l2.507-0.542l5.94,0.793l-0.133,5.736l0.1,2.408
			l0.617-0.188c0.252-0.076,0.474-0.114,0.659-0.114c0.352,0,0.509,0.122,0.575,0.451c0.328,1.582-0.438,3.21-1.087,3.857
			c-0.096,0.096-0.196,0.174-0.319,0.246l-0.259,0.152l0.072,1.563c0.058,1.063-1.146,2.291-3.783,3.859
			C379.291,243.972,378.878,244.077,378.413,244.077C378.414,244.077,378.414,244.077,378.413,244.077z"/>
		<path fill="#3AC2D4" d="M377.277,225.503l5.41,0.723l-0.123,5.287v0.033l0.001,0.032l0.07,1.729l0.055,1.289l1.233-0.373
			c0.255-0.076,0.42-0.094,0.517-0.094c0.03,0,0.058,0.002,0.073,0.004c0.006,0.014,0.01,0.028,0.014,0.049
			c0.288,1.387-0.397,2.853-0.945,3.399c-0.069,0.067-0.14,0.122-0.228,0.175l-0.517,0.307l0.026,0.599
			c0.022,0.563,0.046,1.011,0.059,1.269c0.045,0.834-1.146,1.979-3.538,3.402c-0.274,0.164-0.595,0.244-0.974,0.244
			c-2.099,0-4.896-2.438-5.334-3.105c-0.03-0.092-0.142-0.508-0.216-1.896l-0.029-0.538l-0.466-0.271
			c-0.093-0.055-0.163-0.106-0.23-0.176c-0.555-0.555-1.238-2.021-0.952-3.402c0.007-0.021,0.011-0.037,0.015-0.049
			c0.019-0.004,0.043-0.006,0.076-0.006c0.084,0,0.188,0.014,0.303,0.037l1.198,0.26l0.012-1.228
			c0.017-1.733,0.055-3.071,0.056-3.075l0.002-0.097l-0.015-0.095c-0.002-0.008-0.124-0.793-0.062-2.017
			c0.021-0.394,1.054-1.302,2.155-1.909L377.277,225.503 M377.236,224.487l-2.66,0.576c0,0-2.733,1.438-2.805,2.805
			c-0.072,1.367,0.069,2.229,0.069,2.229s-0.039,1.348-0.056,3.096c-0.171-0.037-0.346-0.061-0.513-0.061
			c-0.495,0-0.935,0.201-1.067,0.85c-0.359,1.727,0.432,3.522,1.223,4.314c0.149,0.148,0.294,0.25,0.437,0.332
			c0.063,1.154,0.169,2.044,0.339,2.328c0.536,0.896,3.646,3.621,6.21,3.621c0.527,0,1.03-0.115,1.484-0.385
			c2.658-1.584,4.099-2.949,4.024-4.315c-0.013-0.253-0.034-0.698-0.059-1.259c0.135-0.08,0.272-0.18,0.419-0.322
			c0.791-0.792,1.581-2.59,1.223-4.314c-0.135-0.646-0.572-0.85-1.064-0.85c-0.267,0-0.547,0.059-0.806,0.137
			c-0.042-1.017-0.07-1.73-0.07-1.73l0.144-6.186L377.236,224.487L377.236,224.487z"/>
	</g>
	<g id="Shape_30_4_">
		<g>
			<path fill="#33C1D3" d="M375.74,239.233c0,0-0.129,0.468-0.043,0.426c2.507,1.02,4.336,0.084,4.336,0.084s0-0.34,0-0.426
				C377.909,240.297,375.74,239.233,375.74,239.233z"/>
		</g>
	</g>
	<path fill="#B5C3CD" stroke="#546770" stroke-miterlimit="10" d="M372.059,233.405c0,0-2.085-4.746-1.364-6.545
		c0.719-1.797,3.668-4.892,5.032-5.752c1.366-0.863,4.173-1.08,5.755,0.574c1.579,1.652,4.241,3.235,3.596,6.399
		c-0.647,3.164-1.799,5.536-1.799,5.536s-0.358-2.084-0.287-2.73c0.069-0.646,0.287-2.59,0.145-3.094
		c-0.145-0.504-1.079-1.797-1.727-0.938c-0.647,0.863-3.31,1.226-4.458,0.576c-1.151-0.646-3.38-1.582-3.452-1.148
		c-0.072,0.432-0.432,4.314-0.647,5.25C372.635,232.472,372.059,233.405,372.059,233.405z"/>
	<g>
		<path fill="#E9F6FB" d="M361.335,256.554l0.815-4.709c0.001,0,0.629-2.604,3.002-3.89c2.028-1.097,5.188-2.821,6.573-3.578
			l2.949,12.499L361.335,256.554z"/>
		<g>
			<path fill="#3AC2D4" d="M371.324,245.281l2.59,10.977l-11.869-0.288l0.689-3.979c0.063-0.245,0.689-2.42,2.703-3.508
				C367.18,247.543,369.753,246.14,371.324,245.281 M372.131,243.474c0,0-4.602,2.519-7.264,3.955
				c-2.659,1.438-3.31,4.313-3.31,4.313l-0.935,5.394l14.813,0.359L372.131,243.474L372.131,243.474z"/>
		</g>
	</g>
	<g>
		<path fill="#E9F6FB" d="M384.62,244.228c1.316,0.719,4.601,2.514,6.688,3.642c2.434,1.313,3.053,3.958,3.06,3.983l0.831,4.799
			l-13.587,0.328L384.62,244.228z"/>
		<g>
			<path fill="#3AC2D4" d="M384.956,244.979c1.54,0.84,4.286,2.34,6.115,3.328c2.104,1.137,2.744,3.406,2.804,3.639l0.73,4.218
				l-12.359,0.3L384.956,244.979 M384.284,243.474l-3.311,14.021l14.814-0.359l-0.938-5.394c0,0-0.646-2.876-3.308-4.313
				C388.886,245.99,384.284,243.474,384.284,243.474L384.284,243.474z"/>
		</g>
	</g>
	<polygon fill="#B5C3CD" stroke="#546770" stroke-miterlimit="10" points="378.1,245.343 380.545,248.506 378.818,250.376 
		380.257,257.278 375.87,257.208 377.093,250.448 375.15,248.579 	"/>
</g>
<g>
	<path fill="#B5C3CD" d="M401.581,257.013c-2.466-0.027-4.62-0.664-5.506-0.966c0.05-0.142,0.114-0.31,0.192-0.489
		c0.309-0.688,0.072-1.123-0.176-1.584l-0.146-0.279c0.065-0.129,0.735-0.592,1.097-0.84c0.303-0.207,0.603-0.416,0.842-0.617
		c1.034-0.875,1.063-2.127,0.772-2.934c-0.042-0.117,0.125-0.271,0.497-0.455l0.171-0.102l0.054-0.043l0.04-0.055
		c1.213-1.66,0.872-7.846,0.829-8.545l-0.025-0.418l-0.415-0.049c-0.013-0.003-1.276-0.154-2.156-0.432
		c-0.22-0.066-0.359-0.146-0.446-0.208c0.042-0.019,0.086-0.036,0.129-0.056c0.328-0.135,0.699-0.287,0.864-0.616
		c0.028-0.063,0.175-0.196,0.277-0.295c0.144-0.134,0.291-0.274,0.414-0.431c0.245-0.307,0.336-0.73,0.231-1.086
		c-0.062-0.201-0.18-0.361-0.339-0.455c0.272-0.426,0.155-0.947,0.14-1.018l-0.014-0.055l-0.024-0.049
		c-0.759-1.52-1.188-2.342-1.443-2.799c0.684-0.344,1.364-0.354,1.375-0.354l0.494-0.004l0.003-0.885h0.5v-1.094l0.441-0.441
		l0.417-1.391h-0.859v-0.445h0.896c0,0-0.343-0.963-0.439-1.24c0.148-0.008,0.354-0.018,0.634-0.018c0.706,0,1.447,0.047,1.5,0.051
		c0.253-0.012,0.447-0.02,0.63-0.02c0.034,0,0.063,0,0.096,0c-0.096,0.262-0.44,1.229-0.44,1.229l0.897-0.002v0.445h-0.859
		l0.417,1.391l0.442,0.441v1.094h0.5v0.885l0.498,0.004c0.009,0,0.691,0.01,1.375,0.354c-0.258,0.457-0.688,1.279-1.445,2.799
		l-0.022,0.049l-0.016,0.055c-0.017,0.068-0.135,0.592,0.142,1.018c-0.175,0.115-0.283,0.269-0.339,0.455
		c-0.104,0.354-0.016,0.779,0.229,1.086c0.123,0.154,0.272,0.297,0.414,0.43c0.104,0.1,0.249,0.232,0.279,0.296
		c0.165,0.329,0.536,0.481,0.863,0.616c0.044,0.02,0.088,0.037,0.13,0.056c-0.089,0.063-0.229,0.142-0.446,0.208
		c-0.882,0.275-2.146,0.429-2.158,0.432l-0.415,0.049l-0.023,0.418c-0.045,0.698-0.386,6.885,0.827,8.545l0.04,0.055l0.096,0.074
		l0.131,0.068c0.372,0.187,0.539,0.34,0.497,0.456c-0.29,0.806-0.264,2.058,0.771,2.933c0.239,0.203,0.539,0.41,0.842,0.619
		c0.359,0.248,1.029,0.709,1.089,0.912l-0.139,0.207c-0.248,0.459-0.48,0.895-0.176,1.584c0.081,0.18,0.146,0.348,0.194,0.487
		c-0.883,0.304-3.024,0.938-5.438,0.965l-0.185,0.005L401.581,257.013z"/>
	<path fill="#546770" d="M400.971,226.776c0.649,0.002,1.322,0.043,1.403,0.049l0.034,0.002l-0.232,0.652h-0.123l0.059,0.188
		l-0.13,0.365h0.237l0.222,0.732l0.188,0.625l0.072,0.241l0.179,0.179l0.207,0.207v0.387v1h0.501l0.007,0.871l0.984,0.017
		c0.005,0,0.296,0.007,0.667,0.11c-0.272,0.516-0.646,1.252-1.179,2.315l-0.051,0.101l-0.024,0.104
		c-0.073,0.29-0.085,0.661,0.021,1.017c-0.096,0.127-0.17,0.272-0.218,0.438c-0.149,0.514-0.028,1.104,0.32,1.54
		c0.152,0.19,0.325,0.353,0.463,0.479c0.063,0.061,0.155,0.146,0.192,0.188c0.063,0.117,0.139,0.217,0.224,0.304
		c-0.72,0.161-1.456,0.252-1.466,0.252l-0.829,0.1l-0.051,0.832c-0.103,1.646-0.333,7.152,0.924,8.871l0.081,0.109l0.104,0.086
		c0.094,0.071,0.178,0.113,0.26,0.154c0.066,0.034,0.125,0.063,0.172,0.092c-0.252,0.951-0.129,2.278,0.999,3.231
		c0.265,0.225,0.575,0.438,0.88,0.647c0.22,0.15,0.545,0.375,0.751,0.549c-0.254,0.478-0.528,1.067-0.16,1.92
		c-1.025,0.313-2.813,0.754-4.786,0.775l-0.068,0.001l-0.104,0.003l-0.106-0.003l-0.071-0.001c-1.972-0.021-3.759-0.464-4.781-0.775
		c0.368-0.853,0.094-1.442-0.16-1.92c0.206-0.174,0.531-0.396,0.751-0.549c0.303-0.209,0.615-0.425,0.88-0.647
		c1.127-0.953,1.251-2.28,0.999-3.231c0.046-0.025,0.104-0.058,0.171-0.092c0.082-0.041,0.166-0.083,0.259-0.156l0.106-0.084
		l0.081-0.109c1.257-1.719,1.023-7.226,0.924-8.871l-0.051-0.832l-0.83-0.1c-0.249-0.029-0.874-0.119-1.464-0.252
		c0.084-0.088,0.16-0.188,0.223-0.304c0.037-0.043,0.13-0.13,0.192-0.188c0.138-0.129,0.31-0.289,0.463-0.479
		c0.349-0.437,0.472-1.026,0.32-1.54c-0.05-0.163-0.122-0.311-0.22-0.438c0.108-0.354,0.099-0.727,0.023-1.017l-0.026-0.104
		l-0.049-0.101c-0.532-1.063-0.906-1.802-1.179-2.315c0.37-0.104,0.659-0.11,0.659-0.11h1v-0.888h0.5v-1v-0.387l0.207-0.207
		l0.179-0.179l0.072-0.241l0.188-0.625l0.22-0.732h0.239l-0.13-0.365l0.057-0.188h-0.123L400.971,226.776 M400.901,225.776
		c-0.582,0-1.142,0.031-1.276,0.141c0,0.063,0.375,1.116,0.375,1.116h-0.688v1.446H400l-0.188,0.625l-0.5,0.5v0.799h-0.5v0.889
		c0,0-1.125,0-2.063,0.688c0.125,0.063,1.688,3.188,1.688,3.188s0.125,0.5-0.188,0.75s0.063,0.5,0.25,0.563
		c0.187,0.063,0.25,0.5,0,0.813s-0.625,0.563-0.75,0.813s-0.688,0.375-1,0.563s-0.188,0.724,0.75,1.019s2.25,0.449,2.25,0.449
		s0.408,6.657-0.733,8.221c-0.077,0.063-1.077,0.425-0.827,1.117c0.25,0.694,0.188,1.694-0.625,2.383
		c-0.813,0.688-2.375,1.438-2.063,2.063c0.313,0.625,0.563,0.875,0.313,1.438c-0.25,0.563-0.354,1-0.354,1s2.757,1.121,6.049,1.158
		c0.063,0,0.127,0.002,0.19,0.002c0.063,0,0.127-0.002,0.188-0.002c3.292-0.037,6.049-1.158,6.049-1.158s-0.104-0.438-0.354-1
		c-0.25-0.563,0-0.813,0.313-1.438c0.313-0.625-1.25-1.375-2.063-2.063c-0.813-0.688-0.875-1.688-0.625-2.383
		c0.25-0.692-0.75-1.056-0.829-1.117c-1.142-1.563-0.733-8.221-0.733-8.221s1.313-0.154,2.25-0.449
		c0.938-0.295,1.063-0.83,0.75-1.019c-0.313-0.188-0.875-0.313-1-0.563s-0.5-0.5-0.75-0.813s-0.188-0.75,0-0.813
		c0.188-0.063,0.563-0.313,0.25-0.563c-0.313-0.25-0.188-0.75-0.188-0.75s1.563-3.125,1.688-3.188
		c-0.938-0.688-2.063-0.688-2.063-0.688v-0.889h-0.5v-0.799l-0.5-0.5l-0.188-0.625h0.688v-1.446h-0.688c0,0,0.375-1.054,0.375-1.116
		c-0.104-0.083-0.396-0.109-0.74-0.109c-0.19,0-0.397,0.008-0.599,0.021C402.417,225.826,401.639,225.776,400.901,225.776
		L400.901,225.776z"/>
</g>
<g>
	<g id="Shape_66_2_">
		<g>
			<path fill="#27BED1" d="M491.478,242.604h-2.4c-0.405,0-0.734,0.209-0.734,0.467c0,0.259,0.329,0.467,0.734,0.467h2.4
				c0.406,0,0.733-0.208,0.733-0.467C492.211,242.813,491.882,242.604,491.478,242.604z M489.581,237.039
				c-0.138-0.22-0.526-0.222-0.871-0.004l-2.034,1.274c-0.344,0.215-0.511,0.566-0.374,0.785c0.136,0.217,0.526,0.219,0.869,0.004
				l2.035-1.275C489.551,237.608,489.718,237.257,489.581,237.039z M476.117,242.474h-2.402c-0.406,0-0.732,0.207-0.732,0.465
				c0,0.261,0.326,0.47,0.732,0.47h2.402c0.406,0,0.731-0.209,0.731-0.47C476.851,242.681,476.522,242.474,476.117,242.474z
				 M477.98,238.577l-2.034-1.276c-0.346-0.215-0.733-0.213-0.87,0.007c-0.139,0.217,0.03,0.568,0.374,0.783l2.035,1.277
				c0.343,0.216,0.73,0.213,0.868-0.006C478.492,239.146,478.324,238.793,477.98,238.577z M482.331,233.869
				c-0.26-0.002-0.469,0.327-0.47,0.731l-0.004,2.402c-0.002,0.404,0.204,0.73,0.464,0.732c0.26,0,0.469-0.327,0.47-0.731
				l0.004-2.401C482.797,234.196,482.589,233.869,482.331,233.869z"/>
		</g>
	</g>
	<g>
		<g>
			<path fill="#B5C3CD" d="M470.798,261.281l0.54-3.083c0.001,0,0.425-1.723,2.01-2.571c1.346-0.718,3.41-1.834,4.404-2.371
				l1.965,8.239L470.798,261.281z"/>
			<g>
				<path fill="#546770" d="M477.416,254.005l1.664,6.975l-7.689-0.184l0.437-2.477c0.043-0.162,0.452-1.553,1.758-2.252
					C474.705,255.469,476.331,254.592,477.416,254.005 M478.087,252.506c0,0-3.152,1.706-4.976,2.681
					c-1.821,0.978-2.268,2.926-2.268,2.926l-0.641,3.656l10.146,0.242L478.087,252.506L478.087,252.506z"/>
			</g>
		</g>
		<g>
			<path fill="#B5C3CD" d="M486.746,253.256c0.994,0.537,3.062,1.653,4.405,2.371c1.589,0.853,2.01,2.58,2.014,2.599l0.535,3.058
				l-8.919,0.214L486.746,253.256z"/>
			<g>
				<path fill="#546770" d="M487.082,254.005c1.085,0.586,2.711,1.463,3.833,2.063c1.304,0.699,1.716,2.097,1.759,2.252l0.436,2.478
					l-7.689,0.185L487.082,254.005 M486.411,252.506l-2.269,9.505l10.148-0.242l-0.641-3.656c0,0-0.443-1.948-2.268-2.926
					C489.564,254.212,486.411,252.506,486.411,252.506L486.411,252.506z"/>
			</g>
		</g>
		<polygon fill="#B5C3CD" stroke="#546770" stroke-miterlimit="10" points="482.176,253.772 483.851,255.918 482.668,257.187 
			483.653,261.864 480.647,261.815 481.485,257.233 480.155,255.968 		"/>
	</g>
	<g>
		<path fill="#E9F6FB" d="M481.806,252.885v-1.475h-0.858v-1.944l-1.839-3.027c-0.21-0.278-0.366-0.537-0.495-0.807l-0.017-0.031
			c-0.274-0.593-0.417-1.219-0.417-1.863c0-2.436,1.981-4.416,4.416-4.416c2.438,0,4.417,1.98,4.417,4.416
			c0,0.998-0.328,1.943-0.95,2.729l-0.273,0.349l0.031,0.031l-1.604,2.488v2.075h-0.614v1.475H481.806z"/>
		<path fill="#3AC2D4" d="M482.596,239.819c2.16,0,3.917,1.758,3.917,3.918c0,0.885-0.291,1.722-0.843,2.419l-0.549,0.7l0.059,0.059
			l-1.304,2.025l-0.159,0.248v0.293v1.429h-0.614v1v0.476h-0.797v-0.476v-1h-0.858v-1.306v-0.279l-0.146-0.239l-1.767-2.907
			l-0.027-0.043l-0.031-0.043c-0.157-0.21-0.298-0.438-0.409-0.676l-0.002-0.002l-0.014-0.027c-0.246-0.522-0.37-1.08-0.37-1.648
			C478.68,241.577,480.438,239.819,482.596,239.819 M482.596,238.819c-2.715,0-4.916,2.203-4.916,4.918
			c0,0.742,0.169,1.443,0.464,2.074h-0.004l0.021,0.035c0.144,0.301,0.315,0.586,0.519,0.852l1.769,2.906v2.306h0.858v1.106
			c0,0.203,0.165,0.366,0.369,0.366h2.061c0.204,0,0.368-0.163,0.368-0.366v-1.106h0.613v-2.429l1.74-2.703l-0.002-0.002
			c0.66-0.836,1.058-1.893,1.058-3.039C487.513,241.022,485.311,238.819,482.596,238.819L482.596,238.819z"/>
	</g>
</g>
<g>
	<g id="Shape_66">
		<g>
			<path fill="#27BED1" d="M468.432,235.696h-3.258c-0.55,0-0.996,0.283-0.996,0.632c0,0.351,0.446,0.633,0.996,0.633h3.258
				c0.553,0,0.995-0.282,0.995-0.633C469.427,235.979,468.98,235.696,468.432,235.696z M465.86,228.147
				c-0.188-0.297-0.714-0.299-1.184-0.006l-2.759,1.729c-0.466,0.292-0.692,0.771-0.507,1.063c0.185,0.295,0.714,0.299,1.179,0.006
				l2.76-1.729C465.819,228.92,466.046,228.442,465.86,228.147z M447.602,235.517h-3.258c-0.55,0-0.995,0.281-0.995,0.631
				c0,0.354,0.445,0.637,0.995,0.637h3.258c0.554,0,0.995-0.283,0.995-0.637C448.597,235.798,448.151,235.517,447.602,235.517z
				 M450.129,230.233l-2.759-1.73c-0.466-0.292-0.994-0.289-1.18,0.007c-0.188,0.296,0.041,0.772,0.507,1.064l2.76,1.731
				c0.465,0.293,0.993,0.289,1.179-0.01C450.822,231.003,450.595,230.526,450.129,230.233z M456.028,223.849
				c-0.354-0.002-0.638,0.443-0.639,0.993l-0.006,3.259c-0.002,0.549,0.28,0.994,0.63,0.996c0.354,0,0.638-0.445,0.639-0.994
				l0.006-3.258C456.66,224.294,456.378,223.849,456.028,223.849z"/>
		</g>
	</g>
	<g>
		<g>
			<path fill="#B5C3CD" d="M440.178,261.194l0.77-4.385c0.001,0,0.588-2.418,2.814-3.613c1.92-1.024,4.93-2.649,6.179-3.324
				l2.771,11.623L440.178,261.194z"/>
			<g>
				<path fill="#546770" d="M449.603,250.621l2.473,10.358l-11.304-0.271l0.66-3.777c0.061-0.221,0.648-2.266,2.565-3.293
					C445.667,252.746,448.159,251.401,449.603,250.621 M450.273,249.122c0,0-4.275,2.313-6.748,3.635
					c-2.472,1.323-3.072,3.967-3.072,3.967l-0.868,4.957l13.762,0.33L450.273,249.122L450.273,249.122z"/>
			</g>
		</g>
		<g>
			<path fill="#B5C3CD" d="M461.896,249.872c1.247,0.675,4.257,2.3,6.177,3.326c2.229,1.193,2.813,3.613,2.818,3.638l0.766,4.358
				l-12.532,0.301L461.896,249.872z"/>
			<g>
				<path fill="#546770" d="M462.232,250.621c1.441,0.78,3.935,2.125,5.604,3.019c1.92,1.027,2.508,3.074,2.565,3.293l0.661,3.776
					l-11.304,0.271L462.232,250.621 M461.563,249.122l-3.072,12.889l13.762-0.33l-0.869-4.957c0,0-0.601-2.644-3.072-3.967
					C465.837,251.437,461.563,249.122,461.563,249.122L461.563,249.122z"/>
			</g>
		</g>
		<polygon fill="#B5C3CD" stroke="#546770" stroke-miterlimit="10" points="455.817,250.841 458.089,253.749 456.485,255.468 
			457.821,261.813 453.746,261.747 454.882,255.534 453.078,253.815 		"/>
	</g>
	<g>
		<path fill="#E9F6FB" d="M455.139,249.813v-2h-1.167v-2.767l-2.469-4.063c-0.281-0.375-0.5-0.733-0.68-1.109l-0.021-0.045
			c-0.386-0.827-0.582-1.702-0.582-2.602c0-3.399,2.769-6.168,6.167-6.168c3.4,0,6.167,2.769,6.167,6.168
			c0,1.396-0.459,2.713-1.325,3.813l-0.273,0.349l0.031,0.03l-2.224,3.453v2.938h-0.833v2h-2.791V249.813L455.139,249.813z"/>
		<path fill="#3AC2D4" d="M456.388,231.563c3.125,0,5.667,2.541,5.667,5.666c0,1.28-0.421,2.492-1.219,3.504l-0.547,0.697
			l0.058,0.059l-1.924,2.99l-0.159,0.248v0.293v2.293h-0.833v1v1h-1.792v-1v-1h-1h-0.167v-2.125v-0.28l-0.146-0.239l-2.396-3.941
			l-0.024-0.045l-0.031-0.041c-0.231-0.306-0.433-0.636-0.597-0.979l-0.005-0.012l-0.017-0.029
			c-0.354-0.762-0.535-1.563-0.535-2.391C450.721,234.104,453.263,231.563,456.388,231.563 M456.388,230.563
			c-3.682,0-6.667,2.983-6.667,6.666c0,1.008,0.229,1.957,0.629,2.813l-0.005,0.002l0.027,0.046c0.195,0.41,0.431,0.798,0.703,1.155
			l2.396,3.941v3.125h1.167v1.5c0,0.275,0.226,0.5,0.5,0.5h2.792c0.276,0,0.5-0.225,0.5-0.5v-1.5h0.833v-3.293l2.359-3.666
			l-0.002-0.002c0.896-1.136,1.434-2.563,1.434-4.123C463.055,233.549,460.069,230.563,456.388,230.563L456.388,230.563z"/>
	</g>
</g>
<g>
	<path fill="#24BFD2" d="M191.977,23.687c1.276,0,2.314,1.038,2.314,2.313s-1.038,2.314-2.314,2.314s-2.313-1.038-2.313-2.314
		S190.701,23.687,191.977,23.687 M191.977,22.687c-1.83,0-3.313,1.483-3.313,3.313c0,1.831,1.483,3.314,3.313,3.314
		c1.831,0,3.314-1.483,3.314-3.314C195.291,24.17,193.808,22.687,191.977,22.687L191.977,22.687z"/>
</g>
<g>
	<g>
		<path fill="#CBDAE5" d="M158.25,27.354c1.276,0,2.314,1.038,2.314,2.313s-1.038,2.314-2.314,2.314s-2.313-1.038-2.313-2.314
			S156.974,27.354,158.25,27.354 M158.25,26.354c-1.83,0-3.313,1.483-3.313,3.313c0,1.831,1.483,3.314,3.313,3.314
			c1.831,0,3.314-1.483,3.314-3.314C161.564,27.837,160.081,26.354,158.25,26.354L158.25,26.354z"/>
	</g>
</g>
</svg>
