<?xml version="1.0" encoding="utf-8"?>
<!-- Generator: Adobe Illustrator 15.0.0, SVG Export Plug-In . SVG Version: 6.00 Build 0)  -->
<!DOCTYPE svg PUBLIC "-//W3C//DTD SVG 1.1//EN" "http://www.w3.org/Graphics/SVG/1.1/DTD/svg11.dtd">
<svg version="1.1" id="Layer_1" xmlns="http://www.w3.org/2000/svg" xmlns:xlink="http://www.w3.org/1999/xlink" x="0px" y="0px"
	 width="378px" height="170px" viewBox="0 0 378 170" enable-background="new 0 0 378 170" xml:space="preserve">
<g>
	<g>
		<path fill="#56626A" d="M17.82,137.839v3.924c0,1.396,0.049,2.764,0.147,4.106c-0.554-0.104-1.125-0.157-1.711-0.157
			s-1.148,0.053-1.687,0.157c0.147-1.865,0.22-3.121,0.22-3.767v-6.408c0.016-1.743,0.016-3.234,0-4.473l-0.171-3.296
			c0.944,0.088,1.759,0.131,2.444,0.131c0.179,0,0.737-0.021,1.674-0.065c0.937-0.043,1.487-0.065,1.65-0.065
			c1.547,0,2.745,0.332,3.592,0.994c1.108,0.872,1.662,2.102,1.662,3.688c0,1.465-0.439,2.668-1.316,3.609
			c-1.072,1.15-2.68,1.727-4.824,1.727C19.127,137.944,18.567,137.909,17.82,137.839z M17.82,129.313v7.245
			c0.583,0.07,1.013,0.104,1.289,0.104c1.199,0,2.107-0.479,2.723-1.438c0.438-0.697,0.656-1.517,0.656-2.459
			c0-1.08-0.251-1.943-0.754-2.589s-1.24-0.968-2.212-0.968C19.133,129.208,18.565,129.243,17.82,129.313z"/>
		<path fill="#56626A" d="M27.547,145.869l0.098-2.563c0.032-0.854,0.049-2.249,0.049-4.185c0-1.727-0.057-3.662-0.171-5.807
			c0.57,0.104,1.108,0.157,1.613,0.157c0.538,0,1.002-0.053,1.393-0.157c-0.065,0.89-0.098,1.805-0.098,2.746
			c0.515-0.864,0.95-1.478,1.304-1.84c0.66-0.674,1.409-1.011,2.247-1.011c0.225,0,0.435,0.026,0.628,0.077
			c-0.146,0.295-0.22,0.917-0.22,1.868c0,0.398,0.041,0.771,0.122,1.116l-0.171,0.129c-0.277-0.227-0.758-0.34-1.442-0.34
			c-1.043,0-1.768,0.47-2.175,1.409c-0.195,0.452-0.293,1.313-0.293,2.582c0,2.261,0.073,4.2,0.22,5.817l-0.635-0.078
			c-0.31-0.053-0.571-0.079-0.782-0.079C29.086,145.712,28.524,145.765,27.547,145.869z"/>
		<path fill="#56626A" d="M35.391,139.657c0-2.001,0.557-3.589,1.671-4.764s2.598-1.763,4.451-1.763
			c1.902,0,3.398,0.562,4.488,1.685c1.089,1.122,1.634,2.736,1.634,4.842c0,2.019-0.549,3.606-1.646,4.764
			c-1.098,1.157-2.589,1.736-4.476,1.736c-1.854,0-3.337-0.583-4.451-1.749S35.391,141.658,35.391,139.657z M38.422,139.631
			c0,3.653,1.03,5.479,3.091,5.479s3.092-1.826,3.092-5.479c0-3.636-1.031-5.453-3.092-5.453S38.422,135.995,38.422,139.631z"/>
		<path fill="#56626A" d="M51.814,133.314l0.293,0.994c0.733,2.493,1.678,5.361,2.835,8.604l0.269-0.758
			c0.407-1.151,0.717-2.075,0.929-2.772c0.326-1.012,0.644-2.015,0.953-3.008c0.391-1.238,0.651-2.259,0.782-3.061
			c0.342,0.104,0.676,0.157,1.002,0.157c0.391,0,0.782-0.053,1.173-0.157l-1.417,3.4c-0.554,1.325-1.198,2.99-1.931,4.995
			c-0.375,1.012-0.847,2.441-1.417,4.29c-0.424-0.104-0.766-0.157-1.026-0.157c-0.277,0-0.693,0.053-1.247,0.157
			c-0.228-0.802-0.595-1.979-1.1-3.531c-0.978-2.615-2.118-5.667-3.421-9.154c0.717,0.104,1.279,0.157,1.686,0.157
			C50.763,133.472,51.309,133.419,51.814,133.314z"/>
		<path fill="#56626A" d="M62.86,130.908c-0.44,0-0.831-0.179-1.173-0.536s-0.513-0.78-0.513-1.269s0.167-0.916,0.501-1.282
			s0.729-0.549,1.186-0.549c0.456,0,0.855,0.183,1.197,0.549s0.513,0.794,0.513,1.282s-0.175,0.911-0.525,1.269
			C63.695,130.729,63.3,130.908,62.86,130.908z M61.345,145.869l0.123-2.825c0.049-1.133,0.073-2.214,0.073-3.243
			c0-2.58-0.082-4.742-0.245-6.486c0.652,0.104,1.198,0.157,1.638,0.157c0.489,0,0.994-0.053,1.515-0.157l-0.049,1.177
			c-0.098,2.354-0.146,3.845-0.146,4.473c0,0.663,0.024,2.25,0.073,4.761c0,0.104,0.016,0.462,0.049,1.072
			c0.032,0.61,0.049,0.968,0.049,1.072c-0.62-0.104-1.092-0.157-1.417-0.157C62.648,145.712,62.094,145.765,61.345,145.869z"/>
		<path fill="#56626A" d="M75.495,145.869l0.098-1.805c-0.929,1.447-2.167,2.171-3.714,2.171c-1.581,0-2.868-0.613-3.862-1.841
			c-0.994-1.227-1.491-2.736-1.491-4.528c0-2.105,0.538-3.759,1.613-4.96c0.994-1.131,2.281-1.696,3.861-1.696
			c0.814,0,1.523,0.172,2.126,0.515c0.375,0.224,0.831,0.619,1.369,1.186c0-3.871-0.098-6.679-0.293-8.423
			c0.538,0.104,1.116,0.157,1.735,0.157c0.521,0,0.986-0.053,1.393-0.157c-0.179,3.262-0.269,6.383-0.269,9.364
			c0,5.405,0.089,8.745,0.269,10.018c-0.493-0.104-0.961-0.157-1.405-0.157C76.761,145.712,76.284,145.765,75.495,145.869z
			 M72.452,144.666c0.933,0,1.672-0.431,2.221-1.291c0.548-0.861,0.822-2.126,0.822-3.796c0-3.322-0.982-4.983-2.945-4.983
			c-1.096,0-1.898,0.54-2.405,1.618c-0.393,0.835-0.589,1.878-0.589,3.13C69.557,142.893,70.521,144.666,72.452,144.666z"/>
		<path fill="#56626A" d="M82.411,130.908c-0.44,0-0.831-0.179-1.173-0.536s-0.513-0.78-0.513-1.269s0.167-0.916,0.501-1.282
			s0.729-0.549,1.186-0.549c0.456,0,0.855,0.183,1.197,0.549s0.513,0.794,0.513,1.282s-0.175,0.911-0.525,1.269
			C83.246,130.729,82.851,130.908,82.411,130.908z M80.896,145.869l0.123-2.825c0.049-1.133,0.073-2.214,0.073-3.243
			c0-2.58-0.082-4.742-0.245-6.486c0.652,0.104,1.198,0.157,1.638,0.157c0.489,0,0.994-0.053,1.515-0.157l-0.049,1.177
			c-0.098,2.354-0.146,3.845-0.146,4.473c0,0.663,0.024,2.25,0.073,4.761c0,0.104,0.016,0.462,0.049,1.072
			c0.032,0.61,0.049,0.968,0.049,1.072c-0.62-0.104-1.092-0.157-1.417-0.157C82.199,145.712,81.645,145.765,80.896,145.869z"/>
		<path fill="#56626A" d="M97.294,137.621c0,0.191-0.017,0.961-0.049,2.31c-0.033,1.349-0.049,2.258-0.049,2.728
			c0,1.444,0.057,2.515,0.171,3.211c-1.075-0.104-1.605-0.157-1.588-0.157c-0.131,0-0.66,0.053-1.589,0.157
			c0.196-1.252,0.293-2.896,0.293-4.932c0-2.331-0.057-3.73-0.171-4.201c-0.277-1.147-1.035-1.722-2.273-1.722
			c-0.994,0-1.719,0.505-2.175,1.513c-0.277,0.609-0.416,1.758-0.416,3.445c0,2.278,0.057,4.244,0.171,5.896
			c-0.978-0.104-1.491-0.157-1.54-0.157c-0.342,0-0.855,0.053-1.54,0.157c0.163-2.58,0.245-4.908,0.245-6.983
			c0-2.232-0.065-4.089-0.196-5.571c0.489,0.104,1.027,0.157,1.613,0.157c0.375,0,0.822-0.053,1.344-0.157
			c-0.065,0.506-0.098,1.229-0.098,2.171c0.552-0.793,1.072-1.354,1.56-1.681c0.601-0.396,1.34-0.595,2.217-0.595
			c1.315,0,2.323,0.383,3.021,1.148S97.294,136.212,97.294,137.621z"/>
		<path fill="#56626A" d="M108.936,134.779h-0.914c0.782,0.796,1.173,1.738,1.173,2.829c0,0.934-0.269,1.722-0.807,2.361
			c-0.684,0.83-1.751,1.307-3.202,1.428c-0.619,0.017-1.336,0.052-2.15,0.104c-0.603,0.104-0.904,0.471-0.904,1.099
			c0,0.768,0.489,1.194,1.466,1.281c1.059,0,2.305,0.035,3.739,0.105c1.026,0.14,1.76,0.444,2.199,0.915
			c0.587,0.628,0.88,1.412,0.88,2.354c0,1.621-0.611,2.964-1.833,4.027c-1.173,0.994-2.59,1.491-4.252,1.491
			c-1.532,0-2.786-0.297-3.764-0.89c-1.043-0.646-1.564-1.543-1.564-2.693c0-1.64,0.676-2.668,2.029-3.087l0.586-0.183
			c-1.141-0.401-1.711-1.09-1.711-2.066c0-1.325,0.733-2.241,2.2-2.747c-1.809-0.732-2.713-1.952-2.713-3.661
			c0-1.36,0.457-2.424,1.372-3.191c0.849-0.732,1.976-1.099,3.38-1.099c0.408,0,0.996,0.062,1.764,0.184
			c0.996,0.156,1.853,0.235,2.572,0.235c0.914,0,1.559-0.044,1.935-0.131c-0.065,0.262-0.098,0.488-0.098,0.68
			c0,0.314,0.033,0.575,0.098,0.785C109.792,134.841,109.298,134.797,108.936,134.779z M104.381,151.571
			c0.994,0,1.841-0.244,2.542-0.732c0.831-0.575,1.247-1.369,1.247-2.38c0-1.535-1.214-2.302-3.642-2.302
			c-1.287,0-2.188,0.222-2.701,0.667c-0.513,0.444-0.77,1.041-0.77,1.791c0,0.994,0.326,1.753,0.978,2.275
			C102.605,151.345,103.387,151.571,104.381,151.571z M104.333,140.56c0.603,0,1.095-0.278,1.479-0.837
			c0.382-0.558,0.574-1.387,0.574-2.485c0-2.04-0.685-3.06-2.053-3.06c-1.402,0-2.102,1.116-2.102,3.348
			C102.23,139.549,102.931,140.56,104.333,140.56z"/>
		<path fill="#56626A" d="M118.385,138.729v-3.662c0-1.046-0.024-2.292-0.073-3.74c-0.017-0.976-0.049-2.109-0.098-3.4
			c0.489,0.105,1.051,0.157,1.687,0.157c0.538,0,1.108-0.052,1.711-0.157c-0.163,3.767-0.245,7.524-0.245,11.273
			c0,0.437,0.024,2.093,0.073,4.97h0.44c2.818,0,4.708-0.078,5.67-0.235c-0.082,0.313-0.122,0.663-0.122,1.046
			c0,0.314,0.041,0.611,0.122,0.89c-2.493-0.104-4.049-0.157-4.668-0.157c-1.32,0-2.875,0.053-4.668,0.157
			c0-0.122,0.028-1.281,0.086-3.479C118.356,140.193,118.385,138.973,118.385,138.729z"/>
		<path fill="#56626A" d="M139.744,139.696h-8.016c0,3.296,1.295,4.943,3.886,4.943c0.57,0,1.193-0.152,1.869-0.458
			c0.676-0.305,1.21-0.701,1.601-1.189l0.269,0.182c-0.049,0.121-0.114,0.303-0.195,0.544l-0.22,1.116
			c-0.18,0.208-0.595,0.449-1.247,0.727c-0.896,0.397-1.85,0.597-2.859,0.597c-1.89,0-3.373-0.583-4.448-1.749
			c-1.076-1.166-1.613-2.819-1.613-4.96c0-2.036,0.586-3.628,1.76-4.777c1.042-1.026,2.346-1.54,3.91-1.54
			c2.249,0,3.78,0.794,4.595,2.381C139.573,136.558,139.809,137.953,139.744,139.696z M131.728,138.415h5.206
			c0-2.825-0.822-4.237-2.467-4.237C132.789,134.178,131.876,135.59,131.728,138.415z"/>
		<path fill="#56626A" d="M144.998,138.954l0.831-0.234c0.342-0.087,0.676-0.174,1.002-0.262c0.489-0.174,0.766-0.391,0.831-0.651
			c0.016-0.088,0.024-0.201,0.024-0.34c0-1.844-0.791-2.767-2.371-2.767c-1.466,0-2.346,0.619-2.64,1.857
			c-0.163-0.035-0.285-0.053-0.367-0.053c-0.098,0-0.228,0.018-0.391,0.053c0.081-0.558,0.122-0.985,0.122-1.281
			c0-0.314,0-0.55,0-0.707c0.812-0.522,1.43-0.871,1.852-1.046c0.633-0.278,1.308-0.418,2.022-0.418
			c1.364,0,2.444,0.331,3.241,0.993c0.796,0.663,1.194,1.64,1.194,2.93c0,0.332-0.012,1.09-0.037,2.275
			c-0.024,1.187-0.037,1.919-0.037,2.197c0,1.36,0.041,2.215,0.122,2.563c0.098,0.418,0.342,0.628,0.733,0.628
			c0.163,0,0.391-0.069,0.684-0.21c-0.065,0.21-0.098,0.366-0.098,0.472c0,0.104,0.033,0.261,0.098,0.471
			c-0.929,0.384-1.621,0.575-2.077,0.575c-0.652,0-1.133-0.166-1.442-0.497c-0.195-0.191-0.391-0.558-0.586-1.099
			c-0.831,1.169-1.923,1.753-3.275,1.753c-1.238,0-2.151-0.4-2.737-1.2c-0.424-0.574-0.635-1.235-0.635-1.983
			c0-1.305,0.375-2.253,1.124-2.845C142.644,139.746,143.581,139.354,144.998,138.954z M147.613,142.089v-2.706
			c-1.564,0.434-2.542,0.789-2.933,1.066c-0.57,0.382-0.855,1.007-0.855,1.874c0,0.694,0.146,1.241,0.44,1.64
			c0.293,0.399,0.684,0.599,1.173,0.599c0.651,0,1.177-0.238,1.576-0.716C147.414,143.369,147.613,142.783,147.613,142.089z"/>
		<path fill="#56626A" d="M161.861,145.869l0.098-1.805c-0.929,1.447-2.167,2.171-3.714,2.171c-1.581,0-2.868-0.613-3.862-1.841
			c-0.994-1.227-1.491-2.736-1.491-4.528c0-2.105,0.538-3.759,1.613-4.96c0.994-1.131,2.281-1.696,3.861-1.696
			c0.814,0,1.523,0.172,2.126,0.515c0.375,0.224,0.831,0.619,1.369,1.186c0-3.871-0.098-6.679-0.293-8.423
			c0.538,0.104,1.116,0.157,1.735,0.157c0.521,0,0.986-0.053,1.393-0.157c-0.179,3.262-0.269,6.383-0.269,9.364
			c0,5.405,0.089,8.745,0.269,10.018c-0.493-0.104-0.961-0.157-1.405-0.157C163.127,145.712,162.65,145.765,161.861,145.869z
			 M158.818,144.666c0.933,0,1.672-0.431,2.221-1.291c0.548-0.861,0.822-2.126,0.822-3.796c0-3.322-0.982-4.983-2.945-4.983
			c-1.096,0-1.898,0.54-2.405,1.618c-0.393,0.835-0.589,1.878-0.589,3.13C155.923,142.893,156.888,144.666,158.818,144.666z"/>
		<path fill="#56626A" d="M177.673,139.696h-8.016c0,3.296,1.295,4.943,3.886,4.943c0.57,0,1.193-0.152,1.869-0.458
			c0.676-0.305,1.21-0.701,1.601-1.189l0.269,0.182c-0.049,0.121-0.114,0.303-0.195,0.544l-0.22,1.116
			c-0.18,0.208-0.595,0.449-1.247,0.727c-0.896,0.397-1.85,0.597-2.859,0.597c-1.89,0-3.373-0.583-4.448-1.749
			c-1.076-1.166-1.613-2.819-1.613-4.96c0-2.036,0.586-3.628,1.76-4.777c1.042-1.026,2.346-1.54,3.91-1.54
			c2.249,0,3.78,0.794,4.595,2.381C177.502,136.558,177.738,137.953,177.673,139.696z M169.657,138.415h5.206
			c0-2.825-0.822-4.237-2.467-4.237C170.717,134.178,169.805,135.59,169.657,138.415z"/>
		<path fill="#56626A" d="M179.799,145.869l0.098-2.563c0.032-0.854,0.049-2.249,0.049-4.185c0-1.727-0.057-3.662-0.171-5.807
			c0.57,0.104,1.108,0.157,1.613,0.157c0.538,0,1.002-0.053,1.393-0.157c-0.065,0.89-0.098,1.805-0.098,2.746
			c0.515-0.864,0.95-1.478,1.304-1.84c0.66-0.674,1.409-1.011,2.247-1.011c0.225,0,0.435,0.026,0.628,0.077
			c-0.146,0.295-0.22,0.917-0.22,1.868c0,0.398,0.041,0.771,0.122,1.116l-0.171,0.129c-0.277-0.227-0.758-0.34-1.442-0.34
			c-1.043,0-1.768,0.47-2.175,1.409c-0.195,0.452-0.293,1.313-0.293,2.582c0,2.261,0.073,4.2,0.22,5.817l-0.635-0.078
			c-0.31-0.053-0.571-0.079-0.782-0.079C181.339,145.712,180.777,145.765,179.799,145.869z"/>
		<path fill="#56626A" d="M187.888,142.913h0.44c0.538,1.326,1.54,1.988,3.006,1.988c0.57,0,1.019-0.183,1.344-0.549
			c0.326-0.366,0.489-0.803,0.489-1.309c0-0.487-0.204-0.88-0.611-1.177c-0.229-0.174-0.725-0.418-1.49-0.732
			c-0.489-0.191-1.043-0.409-1.662-0.653c-1.287-0.681-1.931-1.787-1.931-3.322c0-1.186,0.379-2.153,1.136-2.903
			c0.758-0.749,1.796-1.125,3.116-1.125c1.011,0,2.103,0.262,3.275,0.785c-0.342,0.697-0.546,1.474-0.611,2.328h-0.391
			c-0.277-0.593-0.53-1.003-0.758-1.229c-0.407-0.401-0.938-0.602-1.589-0.602c-0.586,0-1.063,0.156-1.43,0.471
			c-0.366,0.313-0.549,0.732-0.549,1.256c0,0.522,0.211,0.933,0.635,1.229c0.293,0.192,0.974,0.48,2.041,0.863
			c1.066,0.384,1.804,0.75,2.211,1.099c0.717,0.61,1.076,1.474,1.076,2.59c0,1.028-0.343,1.953-1.027,2.772
			c-0.863,1.029-2.077,1.543-3.641,1.543c-0.945,0-2.151-0.34-3.617-1.021c0.081-0.243,0.204-0.609,0.367-1.098
			C187.766,143.803,187.823,143.402,187.888,142.913z"/>
		<path fill="#56626A" d="M200.572,126.487l-0.049,0.837c-0.114,1.953-0.171,4.621-0.171,8.004c0.938-1.412,2.201-2.118,3.788-2.118
			c1.555,0,2.68,0.583,3.376,1.748c0.372,0.627,0.559,1.688,0.559,3.185c0,0.175,0,0.614,0,1.318c0,0.705,0,1.205,0,1.501
			c0,1.88,0.049,3.516,0.146,4.907c-0.489-0.104-0.994-0.157-1.516-0.157c-0.212,0-0.505,0.026-0.88,0.079
			c-0.488,0.052-0.741,0.078-0.757,0.078c0.179-1.792,0.269-3.609,0.269-5.453c0-2.018-0.058-3.253-0.171-3.705
			c-0.261-1.078-0.962-1.618-2.102-1.618c-1.271,0-2.078,0.565-2.42,1.696c-0.195,0.644-0.293,1.661-0.293,3.053
			c0,2.453,0.04,4.462,0.122,6.027c-0.652-0.104-1.165-0.157-1.54-0.157c-0.017,0-0.513,0.053-1.49,0.157l0.024-0.497
			c0.13-2.441,0.187-5.693,0.171-9.756v-5.101c0-0.575-0.065-1.918-0.195-4.028c0.488,0.104,1.042,0.157,1.661,0.157
			C199.627,126.645,200.116,126.592,200.572,126.487z"/>
		<path fill="#56626A" d="M212.375,130.908c-0.439,0-0.831-0.179-1.173-0.536s-0.513-0.78-0.513-1.269s0.166-0.916,0.501-1.282
			c0.333-0.366,0.729-0.549,1.185-0.549s0.855,0.183,1.198,0.549c0.342,0.366,0.513,0.794,0.513,1.282s-0.175,0.911-0.525,1.269
			S212.815,130.908,212.375,130.908z M210.86,145.869l0.122-2.825c0.049-1.133,0.073-2.214,0.073-3.243
			c0-2.58-0.082-4.742-0.244-6.486c0.651,0.104,1.197,0.157,1.637,0.157c0.489,0,0.994-0.053,1.516-0.157l-0.049,1.177
			c-0.098,2.354-0.146,3.845-0.146,4.473c0,0.663,0.024,2.25,0.073,4.761c0,0.104,0.016,0.462,0.049,1.072
			c0.032,0.61,0.049,0.968,0.049,1.072c-0.619-0.104-1.092-0.157-1.418-0.157C212.163,145.712,211.609,145.765,210.86,145.869z"/>
		<path fill="#56626A" d="M219.341,133.314l-0.098,1.831c0.958-1.465,2.226-2.197,3.802-2.197s2.868,0.68,3.875,2.04
			c0.91,1.238,1.365,2.729,1.365,4.473c0,1.727-0.423,3.191-1.268,4.395c-0.991,1.43-2.396,2.145-4.217,2.145
			c-0.828,0-1.543-0.184-2.145-0.55c-0.373-0.209-0.813-0.592-1.315-1.15c0,3.551,0.089,6.35,0.269,8.396
			c-0.489-0.123-1.026-0.184-1.613-0.184c-0.439,0-0.945,0.061-1.515,0.184c0.195-2.603,0.293-5.867,0.293-9.796
			c0-4.19-0.09-7.386-0.269-9.586c0.937,0.104,1.438,0.157,1.504,0.157C218.157,133.472,218.601,133.419,219.341,133.314z
			 M225.255,139.723c0-3.453-0.986-5.179-2.957-5.179c-1.075,0-1.866,0.593-2.371,1.778c-0.391,0.89-0.586,1.979-0.586,3.27
			c0,3.365,1.018,5.048,3.055,5.048c1.042,0,1.816-0.584,2.321-1.752C225.075,142.033,225.255,140.978,225.255,139.723z"/>
		<path fill="#56626A" d="M236.862,133.968c0-2.336-0.081-4.35-0.244-6.042c0.929,0.105,1.507,0.157,1.735,0.157
			c0.375,0,0.953-0.052,1.735-0.157c-0.18,1.291-0.269,4.325-0.269,9.103c0,4.133,0.081,7.08,0.244,8.841
			c-0.163,0-0.437-0.026-0.819-0.078c-0.383-0.053-0.68-0.079-0.892-0.079c-0.195,0-0.488,0.026-0.88,0.079
			c-0.439,0.052-0.733,0.078-0.88,0.078C236.773,143.794,236.862,139.827,236.862,133.968z"/>
		<path fill="#56626A" d="M253.896,137.621c0,0.191-0.017,0.961-0.049,2.31c-0.033,1.349-0.049,2.258-0.049,2.728
			c0,1.444,0.057,2.515,0.171,3.211c-1.075-0.104-1.604-0.157-1.589-0.157c-0.13,0-0.659,0.053-1.588,0.157
			c0.195-1.252,0.293-2.896,0.293-4.932c0-2.331-0.058-3.73-0.171-4.201c-0.277-1.147-1.035-1.722-2.273-1.722
			c-0.993,0-1.719,0.505-2.175,1.513c-0.277,0.609-0.415,1.758-0.415,3.445c0,2.278,0.057,4.244,0.171,5.896
			c-0.978-0.104-1.491-0.157-1.54-0.157c-0.342,0-0.855,0.053-1.539,0.157c0.162-2.58,0.244-4.908,0.244-6.983
			c0-2.232-0.065-4.089-0.195-5.571c0.488,0.104,1.026,0.157,1.612,0.157c0.375,0,0.823-0.053,1.345-0.157
			c-0.065,0.506-0.098,1.229-0.098,2.171c0.552-0.793,1.071-1.354,1.559-1.681c0.602-0.396,1.34-0.595,2.218-0.595
			c1.315,0,2.322,0.383,3.021,1.148S253.896,136.212,253.896,137.621z"/>
		<path fill="#56626A" d="M263.036,133.968c0-2.336-0.081-4.35-0.244-6.042c0.929,0.105,1.507,0.157,1.735,0.157
			c0.375,0,0.953-0.052,1.735-0.157c-0.18,1.291-0.269,4.325-0.269,9.103c0,4.133,0.081,7.08,0.244,8.841
			c-0.163,0-0.437-0.026-0.819-0.078c-0.383-0.053-0.68-0.079-0.892-0.079c-0.195,0-0.488,0.026-0.88,0.079
			c-0.439,0.052-0.733,0.078-0.88,0.078C262.947,143.794,263.036,139.827,263.036,133.968z"/>
		<path fill="#56626A" d="M276.087,132.608v9.678c0,1.255,0.057,2.45,0.171,3.583c-0.945-0.104-1.54-0.157-1.784-0.157
			c-0.229,0-0.782,0.053-1.662,0.157c0.163-3.4,0.245-5.396,0.245-5.989v-7.298c0-0.575-0.017-1.543-0.05-2.903h-1.228
			c-1.392,0-2.668,0.062-3.831,0.183c0.082-0.349,0.122-0.671,0.122-0.968c0-0.296-0.04-0.618-0.122-0.968
			c1.548,0.105,3.723,0.157,6.525,0.157c2.477,0,4.651-0.052,6.525-0.157c-0.082,0.489-0.122,0.82-0.122,0.994
			c0,0.157,0.04,0.471,0.122,0.941c-1.124-0.121-2.746-0.183-4.863-0.183C276.103,130.935,276.087,131.911,276.087,132.608z"/>
	</g>
</g>
<path fill="#56626A" d="M282.446,108.918c0,3.438-2.795,6.225-6.241,6.225h-55.837c-0.781-0.517-8.173-2.787-8.173-6.225V65.229
	c0-3.437,2.795-6.224,6.241-6.224h57.769c3.446,0,6.241,2.787,6.241,6.224V108.918z"/>
<g>
	<path fill="#FFFFFF" d="M231.6,81.999c0-5.018-0.188-9.343-0.562-12.975c2.135,0.225,3.463,0.337,3.988,0.337
		c0.86,0,2.19-0.112,3.988-0.337c-0.413,2.771-0.618,9.287-0.618,19.547c0,8.875,0.187,15.203,0.562,18.985
		c-0.375,0-1.002-0.057-1.882-0.169s-1.563-0.168-2.05-0.168c-0.449,0-1.124,0.056-2.022,0.168
		c-1.011,0.112-1.685,0.169-2.021,0.169C231.394,103.1,231.6,94.58,231.6,81.999z"/>
	<path fill="#FFFFFF" d="M261.369,79.078V99.86c0,2.696,0.131,5.262,0.394,7.695c-2.173-0.225-3.539-0.337-4.101-0.337
		c-0.525,0-1.798,0.112-3.819,0.337c0.374-7.302,0.562-11.59,0.562-12.863V79.021c0-1.236-0.038-3.314-0.113-6.235h-2.821
		c-3.198,0-6.134,0.132-8.805,0.393c0.187-0.749,0.28-1.441,0.28-2.078c0-0.636-0.094-1.329-0.28-2.078
		c3.557,0.225,8.556,0.337,14.997,0.337c5.691,0,10.69-0.112,14.997-0.337c-0.188,1.049-0.28,1.76-0.28,2.134
		c0,0.337,0.093,1.011,0.28,2.022c-2.584-0.261-6.311-0.393-11.178-0.393C261.406,75.483,261.369,77.581,261.369,79.078z"/>
</g>
<g>
	<g>
		<path fill="#22BED1" d="M16.185,85.817V70.789c0-4.294-0.107-9.41-0.322-15.351c-0.072-4.007-0.215-8.658-0.429-13.955
			c2.147,0.429,4.616,0.644,7.407,0.644c2.362,0,4.866-0.215,7.514-0.644c-0.716,15.458-1.073,30.88-1.073,46.267
			c0,1.789,0.107,8.588,0.322,20.396h1.933c12.38,0,20.681-0.322,24.904-0.966c-0.359,1.288-0.537,2.721-0.537,4.294
			c0,1.288,0.178,2.506,0.537,3.649c-10.95-0.43-17.785-0.645-20.503-0.645c-5.796,0-12.631,0.215-20.503,0.645
			c0-0.5,0.124-5.26,0.375-14.277C16.059,91.829,16.185,86.82,16.185,85.817z"/>
		<path fill="#22BED1" d="M109.576,89.789H74.367c0,13.525,5.689,20.289,17.068,20.289c2.504,0,5.242-0.626,8.212-1.879
			c2.969-1.251,5.313-2.88,7.031-4.885l1.181,0.745c-0.214,0.498-0.501,1.243-0.858,2.236l-0.966,4.578
			c-0.789,0.853-2.613,1.846-5.475,2.981c-3.937,1.632-8.123,2.448-12.56,2.448c-8.303,0-14.814-2.392-19.537-7.177
			s-7.085-11.57-7.085-20.355c0-8.356,2.576-14.891,7.729-19.606c4.579-4.213,10.305-6.32,17.175-6.32
			c9.876,0,16.602,3.257,20.181,9.769C108.825,76.908,109.861,82.634,109.576,89.789z M74.367,84.529h22.865
			c0-11.593-3.613-17.39-10.837-17.39C79.024,67.139,75.016,72.936,74.367,84.529z"/>
		<path fill="#22BED1" d="M132.225,86.743l3.649-0.962c1.503-0.357,2.969-0.715,4.401-1.072c2.147-0.715,3.363-1.607,3.65-2.677
			c0.07-0.357,0.107-0.822,0.107-1.392c0-7.568-3.472-11.354-10.413-11.354c-6.441,0-10.306,2.541-11.594,7.622
			c-0.716-0.143-1.253-0.215-1.61-0.215c-0.43,0-1.003,0.072-1.718,0.215c0.357-2.29,0.537-4.042,0.537-5.26
			c0-1.289,0-2.254,0-2.898c3.568-2.147,6.28-3.578,8.135-4.294c2.781-1.144,5.743-1.718,8.883-1.718
			c5.993,0,10.738,1.36,14.235,4.08c3.496,2.72,5.245,6.728,5.245,12.022c0,1.36-0.054,4.474-0.161,9.339
			c-0.107,4.868-0.161,7.874-0.161,9.018c0,5.582,0.178,9.089,0.537,10.52c0.43,1.718,1.503,2.576,3.221,2.576
			c0.714,0,1.717-0.285,3.005-0.858c-0.287,0.858-0.429,1.503-0.429,1.933c0,0.429,0.143,1.073,0.429,1.932
			c-4.079,1.575-7.122,2.362-9.124,2.362c-2.863,0-4.975-0.68-6.333-2.04c-0.859-0.786-1.718-2.289-2.577-4.509
			c-3.649,4.796-8.445,7.192-14.384,7.192c-5.439,0-9.446-1.642-12.023-4.926c-1.862-2.355-2.791-5.069-2.791-8.141
			c0-5.354,1.646-9.245,4.938-11.674C121.883,89.994,125.999,88.387,132.225,86.743z M143.711,99.609V88.501
			c-6.87,1.781-11.164,3.24-12.881,4.38c-2.506,1.566-3.757,4.131-3.757,7.69c0,2.848,0.644,5.092,1.932,6.729
			c1.288,1.638,3.006,2.456,5.153,2.456c2.861,0,5.169-0.978,6.924-2.938C142.833,104.861,143.711,102.458,143.711,99.609z"/>
		<path fill="#22BED1" d="M205.865,115.123l0.429-7.407c-4.079,5.941-9.519,8.91-16.316,8.91c-6.942,0-12.596-2.518-16.961-7.553
			c-4.366-5.035-6.548-11.231-6.548-18.588c0-8.642,2.361-15.426,7.085-20.354c4.364-4.643,10.018-6.964,16.961-6.964
			c3.577,0,6.69,0.706,9.339,2.115c1.646,0.916,3.649,2.538,6.012,4.863c0-15.887-0.43-27.409-1.288-34.566
			c2.361,0.43,4.9,0.645,7.621,0.645c2.289,0,4.329-0.215,6.119-0.645c-0.789,13.383-1.182,26.193-1.182,38.43
			c0,22.186,0.393,35.891,1.182,41.114c-2.167-0.43-4.224-0.645-6.173-0.645C211.424,114.479,209.33,114.693,205.865,115.123z
			 M192.498,110.186c4.097,0,7.347-1.767,9.756-5.301c2.406-3.532,3.611-8.726,3.611-15.578c0-13.633-4.313-20.45-12.936-20.45
			c-4.814,0-8.336,2.214-10.563,6.639c-1.725,3.427-2.586,7.708-2.586,12.848C179.78,102.905,184.018,110.186,192.498,110.186z"/>
	</g>
</g>
<path fill="#22BED1" d="M355.902,58.339c-14.738-45.395-89.55-79.805-157.662-33.647c-0.596,0.402-1.183,0.803-1.771,1.203
	c65.743-37.951,133.842-6.641,147.219,34.562c13.738,42.312-14.736,110.672-116.304,104.143c2.807,0.314,5.642,0.771,8.623,1.198
	C328.045,179.021,370.642,103.733,355.902,58.339z"/>
<path fill="#56626A" d="M246.851,20.866c50.25-0.82,91.517,30.911,92.17,70.874c0.104,6.406-1.187,12.626-3.054,18.575
	c3.906-8.295,6.322-17.294,6.169-26.685c-0.65-39.82-41.114-71.445-90.381-70.64c-33.218,0.542-62.159,15.732-77.154,37.752
	C190.93,33.062,217.249,21.35,246.851,20.866z"/>
<path fill="#56626A" d="M321.804,11.588c26.44,14.494,43.713,38.513,44.183,67.211c0.622,38.128-28.606,72.404-70.253,85.705
	c44.915-10.751,77.441-43.385,76.806-82.237C372.049,52.223,351.854,26.155,321.804,11.588z"/>
</svg>
