<?xml version="1.0" encoding="utf-8"?>
<!-- Generator: Adobe Illustrator 15.0.0, SVG Export Plug-In . SVG Version: 6.00 Build 0)  -->
<!DOCTYPE svg PUBLIC "-//W3C//DTD SVG 1.1//EN" "http://www.w3.org/Graphics/SVG/1.1/DTD/svg11.dtd">
<svg version="1.1" id="Layer_1" xmlns="http://www.w3.org/2000/svg" xmlns:xlink="http://www.w3.org/1999/xlink" x="0px" y="0px"
	 width="38.638px" height="44.884px" viewBox="0 0 38.638 44.884" enable-background="new 0 0 38.638 44.884" xml:space="preserve">
<g id="Shape_1_1_">
	<g>
		<path fill-rule="evenodd" clip-rule="evenodd" fill="#FFFFFF" d="M17.104,20.596c-1.123-1.094-1.944-2.354-2.532-3.616
			c0.417-2.302,0.027-5.653-0.207-7.255c0.064-0.167,0.108-0.29,0.087-0.27c-0.014-0.218-0.097-0.414-0.221-0.574
			c-0.008-0.048-0.014-0.077-0.014-0.077s-0.005,0.015-0.014,0.047c-0.391-0.467-1.151-0.6-1.627,0.013
			c-1.256,1.65-1.126,5.289-0.312,8.078c-0.626,1.911-1.429,3.982-2.295,5.736c-6.524,2.747-5.851,5.621-5.354,6.619
			c-0.116,0.084-0.186,0.131-0.186,0.131c1.859,1.511,4.559-1.524,6.7-4.988c1.052-0.349,2.184-0.665,3.381-0.997
			c0.865-0.218,1.644-0.391,2.357-0.533c3.034,2.014,5.765,1.636,7.009,1.224c0,0.039,0.003,0.067,0.011,0.08
			c0.109-0.06,0.188-0.124,0.28-0.187c0.249-0.103,0.405-0.192,0.423-0.229c-0.035-0.003-0.066-0.009-0.102-0.012
			C26.298,22.136,23.032,19.744,17.104,20.596z M5.386,28.685c0.547-1.308,1.508-2.224,2.737-2.944
			C7.115,27.095,6.098,28.077,5.386,28.685z M13.164,10.226c0.152-0.154,0.477,0.017,0.686,0.156
			c-0.111,0.538-0.242,1.215-0.393,2.096c-0.031,0.18-0.069,0.375-0.112,0.581C13.058,11.452,13.094,10.296,13.164,10.226z
			 M14.281,21.205c-0.568,0.16-1.094,0.321-1.601,0.484c0.345-0.671,0.654-1.317,0.917-1.906c0.375,0.488,0.753,0.915,1.13,1.311
			C14.577,21.133,14.434,21.161,14.281,21.205z M19.737,22.478c3.329-0.286,3.982,0.622,4.109,1.233
			C22.256,23.503,20.897,23.069,19.737,22.478z M21.101,0.318h-1.173L19.626,0c-0.235,0-0.428,0.118-0.494,0.318H0.525
			C0.235,0.318,0,0.552,0,0.841v36.056c0,0.289,0.235,0.523,0.525,0.523h22.648l0.652-2.165H2.525c-0.23,0-0.417-0.187-0.417-0.417
			V2.718c0-0.231,0.187-0.418,0.417-0.418h16.575v9.542c0,0.293,0.235,0.531,0.525,0.531h9.302c0.021,0.029,0.033,0.05,0.033,0.058
			v13.926l2.14-0.663V10.531C31.101,10.242,21.391,0.318,21.101,0.318z"/>
	</g>
</g>
<g id="Shape_98">
	<g>
		<polygon fill-rule="evenodd" clip-rule="evenodd" fill="#FFFFFF" points="27.566,26.885 25.86,28.533 32.686,35.124 
			17.816,35.124 17.816,37.479 32.686,37.479 25.86,44.07 27.566,45.718 37.316,36.302 		"/>
	</g>
</g>
</svg>
