<?xml version="1.0" encoding="utf-8"?>
<!-- Generator: Adobe Illustrator 15.0.0, SVG Export Plug-In . SVG Version: 6.00 Build 0)  -->
<!DOCTYPE svg PUBLIC "-//W3C//DTD SVG 1.1//EN" "http://www.w3.org/Graphics/SVG/1.1/DTD/svg11.dtd">
<svg version="1.1" id="Layer_1" xmlns="http://www.w3.org/2000/svg" xmlns:xlink="http://www.w3.org/1999/xlink" x="0px" y="0px"
	 width="590.562px" height="404.372px" viewBox="0 0 590.562 404.372" enable-background="new 0 0 590.562 404.372"
	 xml:space="preserve">
<g id="Shape_151">
	<g>
		<path fill-rule="evenodd" clip-rule="evenodd" fill="#27BED1" d="M437.428,84.806c2.121,1.769,5.273,1.483,7.042-0.638
			l12.595-15.104c1.769-2.121,1.482-5.274-0.639-7.043l-0.512-0.427c-2.121-1.769-5.273-1.482-7.042,0.638l-12.595,15.105
			c-1.769,2.121-1.482,5.273,0.639,7.042L437.428,84.806z M325.271,284.499l-51.719-40.145c-2.186-1.688-5.326-1.284-7.013,0.902
			l-2.037,2.639c-1.688,2.186-1.283,5.325,0.902,7.013l51.719,40.146c2.186,1.688,5.326,1.283,7.014-0.903l2.036-2.638
			C327.861,289.326,327.457,286.187,325.271,284.499z M271.216,93.732l16.037,11.637c2.251,1.634,5.376,1.121,6.978-1.146
			l0.387-0.547c1.603-2.267,1.076-5.429-1.176-7.063l-16.037-11.637c-2.252-1.634-5.376-1.121-6.979,1.146l-0.387,0.547
			C268.438,88.937,268.964,92.099,271.216,93.732z M273.714,179.905l-0.089-0.669c-0.367-2.771-2.886-4.731-5.625-4.377
			l-19.508,2.524c-2.739,0.354-4.662,2.889-4.294,5.66l0.089,0.669c0.367,2.772,2.885,4.731,5.624,4.377l19.508-2.523
			C272.159,185.212,274.082,182.677,273.714,179.905z M395.057,270.989c-0.435-2.728-2.997-4.587-5.724-4.152l-0.659,0.104
			c-2.727,0.435-4.586,2.997-4.152,5.724l3.091,19.422c0.434,2.728,2.996,4.587,5.724,4.152l0.658-0.104
			c2.727-0.434,4.586-2.996,4.152-5.723L395.057,270.989z M335.271,273.166l-51.719-40.146c-2.186-1.688-5.326-1.283-7.013,0.902
			l-2.037,2.64c-1.688,2.186-1.283,5.325,0.902,7.013l51.719,40.146c2.186,1.687,5.326,1.282,7.014-0.903l2.036-2.639
			C337.861,277.993,337.457,274.853,335.271,273.166z M465.048,227.08c-2.09-1.805-5.248-1.572-7.052,0.518l-0.436,0.505
			c-1.805,2.09-1.573,5.248,0.517,7.052l14.887,12.853c2.09,1.804,5.247,1.572,7.052-0.518l0.436-0.505
			c1.805-2.09,1.573-5.247-0.517-7.052L465.048,227.08z M505.76,148.37l-0.082-0.661c-0.342-2.74-2.84-4.685-5.58-4.344
			l-19.516,2.434c-2.74,0.341-4.685,2.84-4.344,5.58l0.083,0.661c0.342,2.74,2.84,4.685,5.58,4.343l19.516-2.433
			C504.158,153.608,506.102,151.11,505.76,148.37z M451.508,190.036l15.852-3.426c0,0,2.322-3.673,3.288-15.676l-15.731-7.676
			c-0.217-4.956-0.89-9.792-1.972-14.471l12.134-11.798c0,0,0.023-4.346-5.519-15.036l-17.201,1.805
			c-2.66-4.117-5.69-7.973-9.045-11.519l5.189-16.194c0,0-2.022-3.847-11.938-10.678l-15.412,10.406
			c-4.212-2.11-8.629-3.871-13.227-5.212l-3.593-16.855c0,0-3.666-2.334-15.666-3.334l-8.459,17.209
			c-4.063,0.276-8.037,0.869-11.909,1.734l-14.401-15.556c-11.213,4.39-14.06,7.674-14.06,7.674l1.562,19.458
			c-3.228,2.174-6.284,4.581-9.151,7.193l-19.96-6.259c-7.549,9.382-8.386,13.646-8.386,13.646l10.791,15.771
			c-1.849,3.688-3.411,7.544-4.673,11.534l-18.887,3.543c-2.253,11.829-0.987,15.987-0.987,15.987l16.292,8.509
			c0.227,4.445,0.84,8.786,1.77,13.008l-13.69,12.602c4.357,11.226,7.634,14.081,7.634,14.081l16.546-1.279
			c2.411,3.79,5.137,7.358,8.137,10.675l-4.953,15.347l-18.329-14.228c-2.186-1.688-5.326-1.283-7.013,0.902l-2.037,2.639
			c-1.688,2.187-1.283,5.326,0.902,7.014l51.719,40.146c2.186,1.688,5.326,1.283,7.014-0.903l2.036-2.639
			c1.688-2.186,1.283-5.326-0.902-7.013l-19.46-15.105l13.313-8.95c3.745,1.949,7.657,3.621,11.722,4.96l4.513,17.943
			c0,0,3.749,2.198,15.777,2.762l7.512-16.8c4.605-0.175,9.107-0.745,13.48-1.67l11.981,13.235c0,0,4.342,0.178,15.224-4.979
			l-1.297-18.796c3.988-2.527,7.739-5.396,11.205-8.573l16.337,5.324c0,0,3.857-2.003,10.737-11.886l-10.255-15.35
			C448.253,199.07,450.091,194.646,451.508,190.036z M375.667,237.039c-38.844,0-70.333-31.489-70.333-70.333
			c0-38.845,31.489-70.334,70.333-70.334c38.845,0,70.334,31.489,70.334,70.334C446.001,205.55,414.512,237.039,375.667,237.039z
			 M356.577,60.634c0.518,2.734,3.143,4.504,5.863,3.954l0.657-0.133c2.721-0.55,4.507-3.212,3.989-5.945l-3.684-19.469
			c-0.518-2.733-3.143-4.504-5.863-3.954l-0.657,0.133c-2.721,0.55-4.507,3.212-3.99,5.945L356.577,60.634z"/>
	</g>
</g>
<g>
	<path fill="#2B3133" d="M76.977,196.433v-2.031c1.627,0.755,2.969,1.133,4.023,1.133c0.801,0,1.447-0.213,1.938-0.64
		s0.737-0.981,0.737-1.665c0-0.566-0.161-1.048-0.483-1.445s-0.917-0.84-1.782-1.328l-0.996-0.576
		c-1.23-0.703-2.098-1.366-2.603-1.987s-0.757-1.343-0.757-2.163c0-1.12,0.404-2.04,1.211-2.759s1.836-1.079,3.086-1.079
		c1.113,0,2.289,0.186,3.525,0.557v1.875c-1.523-0.599-2.66-0.898-3.408-0.898c-0.709,0-1.295,0.189-1.758,0.566
		s-0.693,0.853-0.693,1.426c0,0.482,0.169,0.908,0.508,1.279s0.957,0.814,1.855,1.328l1.035,0.586
		c1.25,0.709,2.123,1.38,2.617,2.012s0.742,1.39,0.742,2.275c0,1.256-0.462,2.266-1.387,3.027s-2.152,1.143-3.682,1.143
		C79.731,197.067,78.487,196.856,76.977,196.433z"/>
	<path fill="#2B3133" d="M96.469,196.364c-1.289,0.391-2.393,0.586-3.311,0.586c-1.569,0-2.845-0.519-3.828-1.556
		s-1.475-2.382-1.475-4.035c0-1.606,0.435-2.924,1.304-3.952s1.981-1.542,3.335-1.542c1.283,0,2.274,0.458,2.974,1.372
		s1.05,2.212,1.05,3.892l-0.01,0.586h-6.689c0.28,2.513,1.514,3.77,3.701,3.77c0.801,0,1.784-0.218,2.949-0.654V196.364z
		 M89.907,190.271h4.678c0-1.973-0.736-2.959-2.207-2.959C90.899,187.312,90.076,188.298,89.907,190.271z"/>
	<path fill="#2B3133" d="M99.838,196.706v-10.605h1.924v1.992c0.762-1.484,1.869-2.227,3.32-2.227c0.195,0,0.4,0.017,0.615,0.049
		v1.806c-0.332-0.111-0.625-0.166-0.879-0.166c-1.217,0-2.236,0.722-3.057,2.166v6.985H99.838z"/>
	<path fill="#2B3133" d="M110.219,196.706l-3.945-10.605h1.928l3.078,8.247l3.257-8.247h1.795l-4.189,10.605H110.219z"/>
	<path fill="#2B3133" d="M118.374,184.177v-1.924h1.924v1.924H118.374z M118.374,196.706v-10.605h1.924v10.605H118.374z"/>
	<path fill="#2B3133" d="M124.155,196.706v-10.605h1.924v1.992c1.016-1.484,2.259-2.227,3.73-2.227c0.924,0,1.659,0.292,2.202,0.874
		s0.815,1.366,0.815,2.349v7.617h-1.924v-6.992c0-0.788-0.116-1.349-0.347-1.685s-0.614-0.503-1.147-0.503
		c-1.178,0-2.289,0.771-3.33,2.314v6.865H124.155z"/>
	<path fill="#2B3133" d="M136.606,200.231l0.225-1.66c1.115,0.521,2.216,0.781,3.305,0.781c2.165,0,3.247-1.149,3.247-3.447v-1.67
		c-0.333,0.703-0.807,1.25-1.423,1.641s-1.302,0.586-2.058,0.586c-1.284,0-2.301-0.46-3.051-1.382s-1.125-2.169-1.125-3.745
		c0-1.615,0.427-2.93,1.281-3.945s1.959-1.523,3.315-1.523c1.187,0,2.207,0.482,3.061,1.445v-1.211h1.924v7.715
		c0,1.66-0.086,2.889-0.259,3.687s-0.497,1.45-0.972,1.958c-0.84,0.892-2.152,1.338-3.936,1.338
		C138.917,200.798,137.739,200.609,136.606,200.231z M143.383,193.027v-4.398c-0.848-0.878-1.771-1.317-2.769-1.317
		c-0.887,0-1.582,0.354-2.084,1.063c-0.502,0.709-0.753,1.69-0.753,2.945c0,2.302,0.818,3.453,2.456,3.453
		C141.348,194.772,142.398,194.19,143.383,193.027z"/>
	<path fill="#2B3133" d="M155.307,196.706v-14.453h8.076v1.533h-6.025v4.844h5.059v1.514h-5.059v6.563H155.307z"/>
	<path fill="#2B3133" d="M170.307,196.95c-1.556,0-2.788-0.498-3.696-1.494s-1.362-2.347-1.362-4.053s0.454-3.055,1.362-4.048
		s2.14-1.489,3.696-1.489s2.788,0.497,3.696,1.489s1.362,2.342,1.362,4.048s-0.454,3.057-1.362,4.053S171.863,196.95,170.307,196.95
		z M170.302,195.505c0.956,0,1.696-0.358,2.223-1.074c0.527-0.716,0.79-1.725,0.79-3.027s-0.263-2.31-0.79-3.022
		c-0.526-0.713-1.267-1.069-2.223-1.069s-1.695,0.356-2.218,1.069c-0.523,0.713-0.785,1.72-0.785,3.022s0.262,2.311,0.785,3.027
		C168.607,195.147,169.347,195.505,170.302,195.505z"/>
	<path fill="#2B3133" d="M178.374,196.706v-10.605h1.924v1.992c0.762-1.484,1.869-2.227,3.32-2.227c0.195,0,0.4,0.017,0.615,0.049
		v1.806c-0.332-0.111-0.625-0.166-0.879-0.166c-1.217,0-2.236,0.722-3.057,2.166v6.985H178.374z"/>
	<path fill="#2B3133" d="M191.284,196.706c-0.592,0.163-1.107,0.244-1.543,0.244c-0.977,0-1.738-0.28-2.285-0.84
		s-0.82-1.338-0.82-2.334v-6.23h-1.328v-1.445h1.328v-1.924l1.924-0.186v2.109h2.773v1.445h-2.773v5.879
		c0,1.387,0.599,2.08,1.797,2.08c0.254,0,0.563-0.042,0.928-0.127V196.706z"/>
	<path fill="#2B3133" d="M200.668,196.706v-1.992c-1.022,1.491-2.262,2.236-3.721,2.236c-0.924,0-1.66-0.292-2.207-0.874
		s-0.82-1.369-0.82-2.358v-7.617h1.924v6.992c0,0.794,0.116,1.359,0.347,1.694s0.617,0.503,1.157,0.503
		c1.172,0,2.279-0.771,3.32-2.314v-6.875h1.924v10.605H200.668z"/>
	<path fill="#2B3133" d="M206.45,196.706v-10.605h1.924v1.992c1.016-1.484,2.259-2.227,3.73-2.227c0.924,0,1.659,0.292,2.202,0.874
		s0.815,1.366,0.815,2.349v7.617h-1.924v-6.992c0-0.788-0.116-1.349-0.347-1.685s-0.614-0.503-1.147-0.503
		c-1.178,0-2.289,0.771-3.33,2.314v6.865H206.45z"/>
	<path fill="#2B3133" d="M226.635,196.364c-1.289,0.391-2.393,0.586-3.311,0.586c-1.569,0-2.845-0.519-3.828-1.556
		s-1.475-2.382-1.475-4.035c0-1.606,0.435-2.924,1.304-3.952s1.981-1.542,3.335-1.542c1.283,0,2.274,0.458,2.974,1.372
		s1.05,2.212,1.05,3.892l-0.01,0.586h-6.689c0.28,2.513,1.514,3.77,3.701,3.77c0.801,0,1.784-0.218,2.949-0.654V196.364z
		 M220.073,190.271h4.678c0-1.973-0.736-2.959-2.207-2.959C221.065,187.312,220.242,188.298,220.073,190.271z"/>
	<path fill="#2B3133" d="M85.241,263.929v-6.531c3.637,1.46,7.1,2.189,10.391,2.189c3.612,0,6.451-1.063,8.517-3.191
		c2.065-2.127,3.099-5.059,3.099-8.795c0-4.008-1.46-7.069-4.379-9.185c-2.919-2.115-7.138-3.173-12.654-3.173
		c-1.287,0-2.635,0.087-4.045,0.26v-26.719h27.795v6.42H92.588v14.436c7.051,0,12.555,1.621,16.514,4.861
		c3.958,3.241,5.938,7.731,5.938,13.471c0,5.344-1.8,9.531-5.399,12.562c-3.6,3.031-8.566,4.546-14.899,4.546
		C91.92,265.079,88.753,264.695,85.241,263.929z"/>
	<path fill="#2B3133" d="M148.104,265.079c-5.765,0-10.409-2.641-13.935-7.923c-3.525-5.281-5.288-12.252-5.288-20.911
		c0-8.658,1.763-15.629,5.288-20.911c3.525-5.282,8.17-7.923,13.935-7.923c5.789,0,10.44,2.635,13.953,7.904
		c3.513,5.27,5.27,12.246,5.27,20.93c0,8.659-1.757,15.63-5.27,20.911C158.544,262.438,153.893,265.079,148.104,265.079z
		 M148.085,259.587c7.632,0,11.448-7.78,11.448-23.342c0-15.561-3.816-23.342-11.448-23.342c-7.607,0-11.411,7.781-11.411,23.342
		C136.674,251.807,140.478,259.587,148.085,259.587z"/>
	<path fill="#2B3133" d="M196.161,265.079c-5.765,0-10.409-2.641-13.935-7.923c-3.525-5.281-5.288-12.252-5.288-20.911
		c0-8.658,1.763-15.629,5.288-20.911c3.525-5.282,8.17-7.923,13.935-7.923c5.789,0,10.44,2.635,13.953,7.904
		c3.513,5.27,5.27,12.246,5.27,20.93c0,8.659-1.757,15.63-5.27,20.911C206.601,262.438,201.95,265.079,196.161,265.079z
		 M196.142,259.587c7.632,0,11.448-7.78,11.448-23.342c0-15.561-3.816-23.342-11.448-23.342c-7.607,0-11.411,7.781-11.411,23.342
		C184.731,251.807,188.535,259.587,196.142,259.587z"/>
</g>
<g id="Shape_153">
	<g>
		<path fill-rule="evenodd" clip-rule="evenodd" fill="#27BED1" d="M201,264.289c0-1.795-1.455-3.25-3.25-3.25
			s-3.25,1.455-3.25,3.25c0,1.535,1.068,2.814,2.5,3.154v70.098h1v-70.027C199.676,267.384,201,265.998,201,264.289z"/>
	</g>
</g>
<g>
	<path fill="#2B3133" d="M162.921,112.439l4.352-15.292l2.169,0.618l-4.351,15.292L162.921,112.439z"/>
	<path fill="#2B3133" d="M169.09,114.194l3.193-11.221l2.036,0.579l-0.6,2.108c1.521-1.265,3.061-1.676,4.617-1.233
		c0.978,0.278,1.667,0.808,2.067,1.588c0.399,0.78,0.452,1.69,0.156,2.73l-2.293,8.059l-2.036-0.58l2.105-7.397
		c0.237-0.833,0.284-1.462,0.14-1.887s-0.498-0.717-1.063-0.877c-1.247-0.355-2.653,0.127-4.22,1.446l-2.067,7.264L169.09,114.194z"
		/>
	<path fill="#2B3133" d="M182.222,117.931l3.193-11.221l2.036,0.579l-0.6,2.108c1.521-1.265,3.061-1.676,4.617-1.232
		c0.978,0.278,1.667,0.808,2.067,1.587c0.4,0.78,0.452,1.69,0.156,2.73l-2.293,8.059l-2.035-0.58l2.105-7.397
		c0.237-0.833,0.284-1.462,0.14-1.887s-0.498-0.717-1.063-0.877c-1.247-0.355-2.653,0.127-4.22,1.446l-2.067,7.263L182.222,117.931z
		"/>
	<path fill="#2B3133" d="M199.744,123.196c-1.646-0.468-2.8-1.366-3.461-2.694c-0.661-1.327-0.734-2.893-0.221-4.698
		c0.514-1.805,1.4-3.095,2.66-3.873c1.26-0.777,2.713-0.931,4.359-0.463c1.646,0.469,2.8,1.365,3.462,2.688
		c0.662,1.324,0.736,2.888,0.223,4.693s-1.401,3.097-2.662,3.878C202.843,123.509,201.39,123.665,199.744,123.196z M200.174,121.666
		c1.011,0.288,1.902,0.132,2.675-0.467c0.772-0.599,1.355-1.587,1.747-2.965c0.392-1.378,0.417-2.523,0.075-3.436
		c-0.342-0.913-1.019-1.513-2.03-1.801c-1.011-0.288-1.901-0.133-2.669,0.463c-0.768,0.597-1.348,1.584-1.74,2.962
		c-0.392,1.377-0.419,2.524-0.081,3.439C198.488,120.777,199.163,121.378,200.174,121.666z"/>
	<path fill="#2B3133" d="M210.676,126.028l-0.981-12.408l2.04,0.581l0.773,9.652l5.93-7.745l1.899,0.541l-7.625,9.959
		L210.676,126.028z"/>
	<path fill="#2B3133" d="M225.495,128.704c-1.539,0.776-2.873,1.003-4.002,0.682c-0.93-0.265-1.619-0.775-2.066-1.532
		c-0.448-0.756-0.545-1.579-0.292-2.468c0.349-1.226,1.132-2.021,2.349-2.386c1.217-0.365,2.79-0.272,4.719,0.276l0.475,0.135
		l0.385-1.354c0.37-1.302-0.123-2.146-1.48-2.532c-1.054-0.3-2.298-0.296-3.733,0.01l0.479-1.684c1.529-0.168,2.9-0.08,4.113,0.266
		c1.247,0.354,2.085,0.9,2.516,1.637s0.478,1.698,0.14,2.882l-1.446,5.083c-0.332,1.164-0.139,1.848,0.578,2.052
		c0.089,0.025,0.224,0.049,0.404,0.07l-0.176,1.167c-0.524,0.089-1.065,0.054-1.623-0.104
		C225.884,130.635,225.437,129.901,225.495,128.704z M225.51,127.513l0.826-2.903l-0.645-0.206c-1.129-0.322-2.1-0.371-2.912-0.147
		c-0.812,0.223-1.316,0.683-1.515,1.378c-0.139,0.489-0.084,0.951,0.164,1.387c0.248,0.436,0.621,0.724,1.116,0.865
		C223.392,128.127,224.38,128.003,225.51,127.513z"/>
	<path fill="#2B3133" d="M235.99,133.231c-0.676-0.006-1.245-0.075-1.706-0.206c-1.033-0.294-1.755-0.819-2.165-1.577
		c-0.41-0.757-0.465-1.662-0.165-2.716l1.876-6.592l-1.405-0.4l0.435-1.529l1.405,0.4l0.579-2.036l2.091,0.383l-0.635,2.232
		l2.935,0.835l-0.436,1.529l-2.934-0.835l-1.77,6.22c-0.417,1.467,0.007,2.381,1.275,2.742c0.269,0.076,0.608,0.125,1.02,0.145
		L235.99,133.231z"/>
	<path fill="#2B3133" d="M238.903,134.06l3.193-11.22l2.035,0.579l-3.193,11.221L238.903,134.06z M242.675,120.804l0.579-2.035
		l2.036,0.579l-0.579,2.035L242.675,120.804z"/>
	<path fill="#2B3133" d="M247.344,136.462l-0.981-12.408l2.04,0.58l0.773,9.652l5.929-7.745l1.9,0.541l-7.625,9.959L247.344,136.462
		z"/>
	<path fill="#2B3133" d="M264.299,140.896c-1.481,0.025-2.708-0.101-3.679-0.377c-1.66-0.472-2.854-1.405-3.582-2.799
		c-0.728-1.394-0.843-2.964-0.345-4.712c0.484-1.7,1.34-2.962,2.569-3.789c1.229-0.826,2.56-1.035,3.993-0.627
		c1.357,0.386,2.268,1.168,2.733,2.347c0.465,1.178,0.445,2.656-0.061,4.433l-0.187,0.617l-7.078-2.014
		c-0.46,2.743,0.467,4.444,2.781,5.103c0.847,0.241,1.953,0.306,3.317,0.196L264.299,140.896z M259.19,132.473l4.949,1.408
		c0.594-2.087,0.112-3.352-1.444-3.795C261.131,129.641,259.963,130.437,259.19,132.473z"/>
</g>
<g>
	<path fill="#2B3133" d="M469.311,111.578l-5.08-9.576l5.351-2.839l0.539,1.016l-3.992,2.118l1.631,3.073l3.345-1.774l0.532,1.003
		l-3.345,1.774l1.84,3.468l4.271-2.266l0.538,1.016L469.311,111.578z"/>
	<path fill="#2B3133" d="M476.532,107.747l-3.728-7.026l1.274-0.676l0.7,1.32c0.099-1.313,0.635-2.227,1.607-2.744
		c0.939-0.498,1.84-0.346,2.701,0.457c0.082-1.304,0.606-2.212,1.573-2.725c0.616-0.327,1.192-0.399,1.729-0.217
		s0.979,0.601,1.326,1.256l2.709,5.106l-1.274,0.676l-2.603-4.905c-0.426-0.802-0.956-1.034-1.591-0.697
		c-0.661,0.351-1.107,1.187-1.338,2.507l2.497,4.705l-1.274,0.676l-2.605-4.911c-0.429-0.807-0.966-1.038-1.612-0.695
		c-0.644,0.341-1.082,1.176-1.316,2.505l2.499,4.71L476.532,107.747z"/>
	<path fill="#2B3133" d="M493.932,98.225c-0.717,0.712-1.379,1.229-1.987,1.552c-1.039,0.552-2.067,0.657-3.083,0.314
		c-1.016-0.342-1.814-1.06-2.396-2.154c-0.564-1.064-0.739-2.09-0.525-3.077c0.215-0.986,0.771-1.717,1.668-2.193
		c0.85-0.451,1.667-0.496,2.452-0.136s1.474,1.096,2.063,2.209l0.2,0.392l-4.433,2.352c1.069,1.567,2.328,1.965,3.777,1.196
		c0.53-0.281,1.105-0.771,1.724-1.47L493.932,98.225z M487.443,96.494l3.099-1.645c-0.693-1.307-1.527-1.702-2.502-1.185
		C487.06,94.185,486.861,95.127,487.443,96.494z"/>
	<path fill="#2B3133" d="M496.285,97.267l-3.728-7.026l1.274-0.676l0.7,1.32c-0.018-1.251,0.455-2.132,1.417-2.642
		c0.13-0.069,0.271-0.13,0.425-0.184l0.635,1.196c-0.259,0.043-0.472,0.11-0.641,0.199c-0.807,0.428-1.228,1.264-1.264,2.509
		l2.455,4.627L496.285,97.267z"/>
	<path fill="#2B3133" d="M502.971,96.712l-0.434-1.179c0.921-0.047,1.743-0.262,2.464-0.645c1.435-0.761,1.747-1.903,0.939-3.425
		l-0.587-1.106c0.027,0.583-0.095,1.112-0.366,1.587c-0.271,0.475-0.656,0.846-1.157,1.111c-0.851,0.452-1.687,0.504-2.507,0.157
		c-0.82-0.347-1.508-1.042-2.062-2.086c-0.567-1.07-0.747-2.091-0.538-3.064c0.208-0.973,0.762-1.698,1.66-2.174
		c0.786-0.417,1.632-0.457,2.536-0.118l-0.426-0.802l1.274-0.676l2.712,5.111c0.584,1.1,0.958,1.944,1.125,2.533
		c0.165,0.589,0.181,1.135,0.044,1.639c-0.243,0.886-0.955,1.643-2.137,2.27C504.702,96.275,503.855,96.564,502.971,96.712z
		 M504.929,89.556l-1.546-2.914c-0.87-0.283-1.636-0.25-2.297,0.101c-0.588,0.312-0.924,0.791-1.007,1.437
		c-0.084,0.646,0.095,1.385,0.536,2.216c0.809,1.525,1.756,2,2.84,1.424C504.195,91.428,504.686,90.674,504.929,89.556z"/>
	<path fill="#2B3133" d="M505.565,81.706l-0.677-1.275l1.274-0.676l0.677,1.275L505.565,81.706z M509.968,90.006l-3.728-7.026
		l1.274-0.676l3.729,7.026L509.968,90.006z"/>
	<path fill="#2B3133" d="M513.799,87.974l-3.729-7.026l1.274-0.676l0.7,1.32c0.151-1.34,0.715-2.269,1.689-2.786
		c0.612-0.325,1.201-0.39,1.766-0.195c0.565,0.195,1.021,0.618,1.366,1.27l2.678,5.046l-1.274,0.676l-2.458-4.632
		c-0.277-0.522-0.551-0.853-0.822-0.994c-0.271-0.141-0.583-0.118-0.937,0.07c-0.781,0.415-1.245,1.316-1.393,2.704l2.413,4.548
		L513.799,87.974z"/>
	<path fill="#2B3133" d="M523.288,85.933l-0.435-1.179c0.922-0.047,1.743-0.262,2.465-0.645c1.434-0.761,1.747-1.903,0.938-3.425
		l-0.587-1.106c0.027,0.583-0.095,1.112-0.365,1.587c-0.271,0.475-0.657,0.846-1.158,1.111c-0.851,0.452-1.687,0.504-2.507,0.157
		c-0.82-0.347-1.508-1.042-2.062-2.086c-0.567-1.07-0.747-2.091-0.538-3.064c0.209-0.973,0.763-1.698,1.661-2.174
		c0.785-0.417,1.631-0.457,2.535-0.118l-0.426-0.802l1.274-0.676l2.712,5.111c0.584,1.1,0.959,1.944,1.125,2.533
		s0.181,1.135,0.044,1.639c-0.242,0.886-0.955,1.643-2.137,2.27C525.018,85.496,524.17,85.785,523.288,85.933z M525.245,78.777
		l-1.546-2.914c-0.87-0.283-1.636-0.25-2.297,0.101c-0.588,0.312-0.923,0.791-1.007,1.437s0.095,1.385,0.536,2.216
		c0.81,1.525,1.756,2,2.841,1.424C524.51,80.649,525.001,79.895,525.245,78.777z"/>
	<path fill="#2B3133" d="M541.372,72.715c-0.686,0.989-1.588,1.779-2.704,2.372c-1.488,0.79-2.869,0.964-4.143,0.522
		c-1.272-0.441-2.335-1.464-3.187-3.068c-0.849-1.6-1.094-3.058-0.733-4.375c0.36-1.315,1.293-2.373,2.799-3.172
		c0.854-0.453,1.932-0.845,3.231-1.176l0.677,1.275c-1.552,0.243-2.684,0.553-3.396,0.931c-1.039,0.551-1.657,1.33-1.854,2.335
		c-0.196,1.005,0.046,2.148,0.726,3.429c0.649,1.225,1.465,2.028,2.446,2.408s2,0.29,3.057-0.271
		c0.901-0.479,1.723-1.271,2.463-2.376L541.372,72.715z"/>
	<path fill="#2B3133" d="M546.526,70.818c-1.031,0.547-2.022,0.65-2.975,0.309c-0.951-0.34-1.728-1.076-2.327-2.206
		c-0.6-1.13-0.772-2.184-0.52-3.161c0.252-0.977,0.894-1.739,1.925-2.286c1.031-0.547,2.021-0.651,2.973-0.313
		c0.95,0.339,1.726,1.073,2.325,2.203s0.773,2.185,0.522,3.164C548.198,69.508,547.556,70.271,546.526,70.818z M546.014,69.862
		c0.634-0.336,0.998-0.833,1.096-1.493c0.097-0.659-0.083-1.42-0.541-2.283c-0.458-0.862-0.986-1.438-1.586-1.725
		c-0.6-0.288-1.216-0.263-1.849,0.073s-0.997,0.832-1.094,1.488c-0.096,0.656,0.085,1.416,0.543,2.278
		c0.457,0.863,0.985,1.439,1.584,1.73S545.381,70.198,546.014,69.862z"/>
	<path fill="#2B3133" d="M551.784,67.821l-3.728-7.026l1.274-0.676l0.7,1.32c0.099-1.313,0.635-2.227,1.607-2.744
		c0.939-0.498,1.84-0.346,2.702,0.458c0.082-1.304,0.605-2.212,1.572-2.725c0.616-0.327,1.193-0.399,1.729-0.217
		s0.978,0.601,1.325,1.256l2.709,5.106l-1.274,0.676l-2.603-4.905c-0.425-0.802-0.955-1.034-1.591-0.697
		c-0.661,0.351-1.107,1.187-1.337,2.507l2.496,4.705l-1.274,0.676l-2.605-4.911c-0.428-0.806-0.966-1.038-1.612-0.695
		c-0.643,0.341-1.081,1.176-1.315,2.505l2.499,4.71L551.784,67.821z"/>
	<path fill="#2B3133" d="M565.51,63.813l-5.084-9.582l1.275-0.676l0.7,1.32c0-1.26,0.521-2.167,1.565-2.721
		c0.846-0.449,1.675-0.493,2.487-0.134s1.502,1.074,2.07,2.144c0.617,1.165,0.841,2.25,0.67,3.255
		c-0.172,1.005-0.706,1.747-1.603,2.222c-0.833,0.442-1.694,0.49-2.585,0.145l1.778,3.352L565.51,63.813z M564.541,58.906
		c0.967,0.238,1.748,0.199,2.343-0.117c0.587-0.311,0.91-0.796,0.97-1.454s-0.146-1.431-0.617-2.319
		c-0.873-1.646-1.853-2.18-2.939-1.604c-0.712,0.378-1.202,1.132-1.47,2.262L564.541,58.906z"/>
	<path fill="#2B3133" d="M575.644,54.017c-0.391,1.108-0.939,1.85-1.646,2.225c-0.583,0.309-1.162,0.383-1.739,0.222
		c-0.578-0.161-1.014-0.519-1.31-1.076c-0.407-0.768-0.397-1.528,0.029-2.283c0.426-0.754,1.243-1.451,2.45-2.092l0.298-0.158
		l-0.449-0.848c-0.433-0.815-1.074-0.998-1.924-0.546c-0.66,0.35-1.271,0.939-1.831,1.768l-0.56-1.055
		c0.673-0.805,1.389-1.409,2.148-1.812c0.78-0.414,1.45-0.542,2.01-0.383c0.561,0.159,1.037,0.61,1.431,1.352l1.688,3.183
		c0.387,0.729,0.805,0.975,1.253,0.736c0.057-0.029,0.134-0.082,0.232-0.156l0.465,0.657c-0.216,0.292-0.498,0.53-0.848,0.715
		C576.747,54.783,576.181,54.633,575.644,54.017z M575.089,53.424l-0.965-1.818l-0.415,0.203c-0.707,0.375-1.208,0.81-1.501,1.303
		c-0.294,0.493-0.326,0.958-0.095,1.393c0.163,0.307,0.408,0.508,0.735,0.605c0.328,0.097,0.647,0.063,0.958-0.102
		C574.337,54.727,574.765,54.199,575.089,53.424z"/>
	<path fill="#2B3133" d="M579.812,52.95l-3.728-7.026l1.274-0.676l0.7,1.32c0.151-1.341,0.714-2.27,1.688-2.787
		c0.612-0.325,1.201-0.39,1.767-0.195c0.564,0.195,1.021,0.618,1.365,1.269l2.678,5.047l-1.274,0.676l-2.458-4.633
		c-0.276-0.521-0.551-0.853-0.821-0.994c-0.271-0.141-0.584-0.117-0.938,0.07c-0.78,0.414-1.245,1.315-1.393,2.704l2.413,4.549
		L579.812,52.95z"/>
	<path fill="#2B3133" d="M589.794,50.929l-0.215-3.164l-6.443-5.583l1.381-0.732l4.815,4.221l-0.66-6.426l1.206-0.64l1.247,11.618
		L589.794,50.929z"/>
</g>
<g>
	<path fill="#2B3133" d="M256.875,9.57l8.891-7.393l1.447,1.741l-4.827,8.186l8.986-3.185l1.302,1.566l-8.89,7.393l-0.984-1.183
		l7.222-6.005l-8.663,3.063l-1.013-1.219l4.668-7.901l-7.239,6.019L256.875,9.57z"/>
	<path fill="#2B3133" d="M265.717,20.203l6.523-5.424l0.984,1.183l-6.523,5.425L265.717,20.203z M273.424,13.794l1.183-0.984
		l0.984,1.184l-1.184,0.984L273.424,13.794z"/>
	<path fill="#2B3133" d="M272.16,27.952l1.226-1.019c-1.317,0.282-2.379-0.063-3.186-1.033c-0.654-0.786-0.882-1.643-0.684-2.57
		s0.793-1.804,1.786-2.63c1.085-0.902,2.171-1.373,3.257-1.411c1.086-0.039,1.976,0.359,2.669,1.193
		c0.644,0.774,0.881,1.662,0.711,2.664l3.707-3.082l0.984,1.184l-9.485,7.887L272.16,27.952z M277.128,23.821
		c0.03-1.063-0.183-1.87-0.64-2.419c-0.45-0.542-1.025-0.772-1.725-0.693c-0.699,0.079-1.463,0.463-2.292,1.153
		c-1.526,1.269-1.868,2.409-1.028,3.419c0.547,0.658,1.441,1.004,2.682,1.038L277.128,23.821z"/>
	<path fill="#2B3133" d="M278.319,35.358l8.891-7.393l1.448,1.741l-4.827,8.186l8.985-3.186l1.302,1.566l-8.891,7.393l-0.984-1.184
		l7.222-6.005l-8.663,3.063l-1.013-1.219l4.668-7.901l-7.239,6.02L278.319,35.358z"/>
	<path fill="#2B3133" d="M290.787,48.666c-1.242-0.166-2.137-0.577-2.683-1.234c-0.45-0.541-0.653-1.13-0.611-1.768
		c0.042-0.638,0.321-1.172,0.838-1.601c0.713-0.593,1.509-0.749,2.39-0.468s1.787,0.981,2.719,2.103l0.229,0.276l0.787-0.654
		c0.757-0.629,0.807-1.339,0.151-2.127c-0.509-0.613-1.258-1.122-2.245-1.527l0.979-0.814c0.987,0.527,1.773,1.143,2.359,1.848
		c0.603,0.725,0.882,1.397,0.838,2.016c-0.044,0.619-0.411,1.215-1.1,1.788l-2.955,2.458c-0.677,0.563-0.842,1.052-0.496,1.469
		c0.043,0.052,0.115,0.121,0.214,0.208l-0.584,0.628c-0.352-0.162-0.662-0.405-0.932-0.729
		C290.227,49.984,290.26,49.361,290.787,48.666z M291.284,47.957l1.688-1.404l-0.302-0.388c-0.546-0.657-1.109-1.085-1.688-1.284
		c-0.579-0.199-1.071-0.131-1.475,0.206c-0.284,0.236-0.441,0.536-0.471,0.899c-0.03,0.364,0.076,0.689,0.315,0.978
		C289.76,47.456,290.405,47.788,291.284,47.957z"/>
	<path fill="#2B3133" d="M292.81,52.785l6.524-5.425l0.984,1.184l-1.226,1.019c1.303-0.291,2.325,0.01,3.068,0.903
		c0.1,0.12,0.194,0.255,0.284,0.404l-1.111,0.924c-0.102-0.261-0.217-0.469-0.347-0.625c-0.623-0.749-1.588-1.006-2.896-0.772
		l-4.297,3.572L292.81,52.785z"/>
	<path fill="#2B3133" d="M296.996,57.819l9.485-7.887l0.983,1.184l-6.127,5.095l5.464,0.131l1.061,1.276l-5.244-0.11l-0.825,6.082
		l-1.261-1.517l0.794-5.852l-3.346,2.782L296.996,57.819z"/>
	<path fill="#2B3133" d="M307.161,69.616c-0.899-0.593-1.584-1.172-2.054-1.737c-0.803-0.965-1.136-2.015-1.001-3.15
		c0.136-1.136,0.712-2.126,1.728-2.971c0.988-0.821,2.021-1.228,3.098-1.219c1.077,0.009,1.962,0.43,2.654,1.263
		c0.656,0.789,0.882,1.632,0.677,2.531c-0.204,0.898-0.823,1.777-1.856,2.636l-0.365,0.294l-3.422-4.115
		c-1.402,1.458-1.545,2.859-0.426,4.205c0.41,0.493,1.047,0.986,1.911,1.479L307.161,69.616z M307.552,62.462l2.393,2.877
		c1.214-1.009,1.444-1.966,0.691-2.871C309.88,61.56,308.853,61.558,307.552,62.462z"/>
	<path fill="#2B3133" d="M311.091,74.771c-0.403-0.281-0.716-0.556-0.939-0.824c-0.499-0.601-0.717-1.212-0.652-1.835
		c0.065-0.623,0.403-1.189,1.017-1.698l3.832-3.187l-0.679-0.817l0.889-0.739l0.68,0.817l1.183-0.984l1.099,1.088l-1.298,1.079
		l1.419,1.706l-0.889,0.739l-1.419-1.706l-3.616,3.007c-0.854,0.709-0.974,1.433-0.36,2.169c0.13,0.156,0.313,0.325,0.553,0.506
		L311.091,74.771z"/>
</g>
<g id="Shape_152">
	<g>
		<path fill-rule="evenodd" clip-rule="evenodd" fill="#2B3133" d="M306.758,291.502l-33.881-26.384
			c-2.357-1.835-5.484-1.41-6.969,0.908c-1.459,2.277-0.783,5.543,1.491,7.333l2.095,1.649c0.901,3.708,2.658,8.984,5.839,12.363
			c0.461,0.489,0.943,0.971,1.437,1.445c-6.157,8.595-35.136,45.516-78.437,45.222c-49-0.333-126.666-54.333-184,46
			C-0.333,404.372,0,404.372,0,404.372h14.667c0,0,30.666-80.666,95.666-74.666c12.334,0.666,33.432,5.126,61.334,10.833
			c29.153,5.963,72.792,10.104,112.921-46.455c3.028,1.232,6.59,1.825,10.875,1.366l4.615,3.633
			c2.385,1.876,5.815,1.768,7.688-0.282C309.672,296.714,309.232,293.429,306.758,291.502z"/>
	</g>
</g>
<g id="Shape_151_copy">
	<g>
		<path fill-rule="evenodd" clip-rule="evenodd" fill="#363738" d="M375.668,100.539c-36.544,0-66.168,29.624-66.168,66.167
			s29.624,66.167,66.168,66.167c36.543,0,66.167-29.624,66.167-66.167S412.211,100.539,375.668,100.539z M375.668,220.367
			c-29.636,0-53.661-24.025-53.661-53.661c0-29.637,24.025-53.661,53.661-53.661c29.637,0,53.662,24.024,53.662,53.661
			C429.331,196.342,405.305,220.367,375.668,220.367z"/>
	</g>
</g>
<g id="Shape_151_copy_3" opacity="0.2">
	<g>
		<path fill-rule="evenodd" clip-rule="evenodd" fill="#363738" d="M375.669,124.538c-23.288,0-42.167,18.879-42.167,42.168
			c0,23.288,18.879,42.167,42.167,42.167s42.167-18.879,42.167-42.167C417.836,143.417,398.958,124.538,375.669,124.538z
			 M375.67,200.903c-18.887,0-34.197-15.311-34.197-34.197s15.311-34.197,34.197-34.197s34.197,15.311,34.197,34.197
			S394.557,200.903,375.67,200.903z"/>
	</g>
</g>
<g id="Shape_152_copy">
	<g>
		<path fill-rule="evenodd" clip-rule="evenodd" fill="#2B3133" d="M475.828,366.306l-19.53-15.209
			c-1.358-1.058-3.162-0.813-4.018,0.523c-0.841,1.313-0.451,3.194,0.86,4.228l1.209,0.952c0.52,2.138,1.529,5.176,3.364,7.125
			c0.266,0.282,0.543,0.559,0.827,0.832c-3.534,4.938-20.237,26.238-45.213,26.068c-28.246-0.192-73.016-31.319-106.065,26.516
			c-8.454,14.027-8.262,14.027-8.262,14.027h8.454c0,0,17.678-46.5,55.146-43.041c-1.346-0.192,16.429,1.634,32.185,6.245
			c15.658,4.583,45.071,5.829,68.255-26.781c1.747,0.712,3.803,1.055,6.277,0.79l2.659,2.094c1.374,1.082,3.353,1.02,4.432-0.162
			C477.507,369.31,477.253,367.416,475.828,366.306z"/>
	</g>
</g>
<g id="Shape_151_copy_2">
	<g>
		<path fill-rule="evenodd" clip-rule="evenodd" fill="#27BED1" d="M486.499,362.269l-29.813-23.142
			c-1.26-0.973-3.07-0.739-4.043,0.521l-1.174,1.521c-0.973,1.26-0.739,3.069,0.521,4.042l29.813,23.142
			c1.26,0.973,3.07,0.739,4.043-0.521l1.174-1.521C487.992,365.051,487.758,363.241,486.499,362.269z M456.78,301.977l-0.052-0.386
			c-0.212-1.598-1.663-2.728-3.242-2.522l-11.245,1.455c-1.579,0.204-2.688,1.665-2.476,3.263l0.052,0.386
			c0.211,1.598,1.663,2.728,3.242,2.522l11.245-1.455C455.883,305.035,456.991,303.574,456.78,301.977z M455.339,252.303
			l9.244,6.708c1.298,0.942,3.1,0.646,4.022-0.66l0.224-0.315c0.923-1.307,0.62-3.129-0.679-4.071l-9.244-6.708
			c-1.298-0.942-3.099-0.646-4.022,0.661l-0.223,0.314C453.738,249.538,454.042,251.361,455.339,252.303z M551.151,247.158
			c1.222,1.02,3.039,0.854,4.059-0.368l7.26-8.707c1.02-1.223,0.855-3.04-0.367-4.06l-0.295-0.246
			c-1.223-1.02-3.041-0.854-4.06,0.368l-7.261,8.707c-1.019,1.223-0.854,3.04,0.368,4.059L551.151,247.158z M526.726,354.48
			c-0.25-1.571-1.728-2.644-3.3-2.394l-0.379,0.061c-1.572,0.25-2.644,1.728-2.394,3.3l1.781,11.195
			c0.25,1.572,1.727,2.644,3.299,2.394l0.38-0.061c1.572-0.25,2.644-1.727,2.394-3.299L526.726,354.48z M567.072,329.17
			c-1.205-1.04-3.024-0.906-4.065,0.299l-0.251,0.29c-1.04,1.205-0.906,3.025,0.298,4.065l8.582,7.408
			c1.204,1.04,3.024,0.907,4.064-0.298l0.251-0.291c1.04-1.205,0.907-3.024-0.298-4.065L567.072,329.17z M590.54,283.799
			l-0.047-0.382c-0.197-1.579-1.638-2.7-3.217-2.503l-11.25,1.402c-1.579,0.196-2.7,1.637-2.503,3.216l0.047,0.382
			c0.197,1.579,1.638,2.7,3.217,2.504l11.25-1.402C589.616,286.818,590.737,285.378,590.54,283.799z M559.266,307.817l9.138-1.976
			c0,0,1.339-2.117,1.896-9.036l-9.078-4.43c-0.125-2.854-0.503-5.642-1.127-8.336l6.995-6.802c0,0,0.014-2.505-3.181-8.667
			l-9.916,1.04c-1.533-2.373-3.28-4.596-5.214-6.64l2.991-9.336c0,0-1.166-2.217-6.882-6.154l-8.884,5.998
			c-2.428-1.217-4.975-2.231-7.625-3.005l-2.07-9.715c0,0-2.113-1.346-9.031-1.922l-4.875,9.919c-2.342,0.159-4.633,0.501-6.865,1
			l-8.302-8.968c-6.464,2.531-8.104,4.424-8.104,4.424l0.9,11.216c-1.857,1.251-3.605,2.649-5.256,4.152l-11.525-3.613
			c-4.351,5.408-4.834,7.866-4.834,7.866l6.232,9.108c-1.062,2.119-1.952,4.336-2.681,6.626l-10.911,2.048
			c-1.299,6.818-0.57,9.216-0.57,9.216l9.392,4.905c0.131,2.563,0.484,5.064,1.021,7.498l-7.892,7.264
			c2.512,6.471,4.4,8.117,4.4,8.117l9.537-0.738c1.39,2.185,2.962,4.241,4.691,6.153l-2.855,8.847l-10.565-8.201
			c-1.261-0.973-3.07-0.739-4.043,0.521l-1.174,1.521c-0.973,1.26-0.74,3.069,0.52,4.042l29.813,23.142
			c1.261,0.973,3.07,0.739,4.043-0.521l1.174-1.521c0.973-1.261,0.74-3.07-0.52-4.043l-11.218-8.708l7.677-5.16
			c2.158,1.122,4.412,2.086,6.754,2.857l2.602,10.347c0,0,2.161,1.268,9.095,1.592l4.334-9.693c2.652-0.102,5.248-0.421,7.767-0.953
			l6.906,7.629c0,0,2.504,0.103,8.776-2.87l-0.748-10.834c2.299-1.457,4.462-3.111,6.459-4.942l9.418,3.069
			c0,0,2.223-1.155,6.188-6.852l-5.911-8.849C557.39,313.024,558.45,310.475,559.266,307.817z M515.549,334.911
			c-22.392,0-40.543-18.152-40.543-40.543c0-22.392,18.151-40.543,40.543-40.543s40.543,18.151,40.543,40.543
			C556.092,316.759,537.941,334.911,515.549,334.911z M492.263,355.735l-29.813-23.141c-1.261-0.973-3.07-0.74-4.043,0.52
			l-1.174,1.521c-0.973,1.26-0.74,3.07,0.521,4.043l29.813,23.141c1.26,0.973,3.069,0.74,4.042-0.521l1.175-1.521
			C493.756,358.519,493.523,356.708,492.263,355.735z M504.544,233.225c0.298,1.575,1.812,2.596,3.38,2.278l0.379-0.076
			c1.568-0.316,2.598-1.852,2.3-3.427l-2.124-11.223c-0.298-1.576-1.812-2.597-3.38-2.279l-0.378,0.076
			c-1.568,0.317-2.599,1.852-2.301,3.428L504.544,233.225z"/>
	</g>
</g>
<g id="Shape_151_copy_2_1_">
	<g>
		<path fill-rule="evenodd" clip-rule="evenodd" fill="#363738" d="M515.549,256.227c-21.064,0-38.141,17.076-38.141,38.142
			c0,21.064,17.076,38.141,38.141,38.141s38.142-17.076,38.142-38.141C553.691,273.303,536.614,256.227,515.549,256.227z
			 M515.55,325.301c-17.084,0-30.933-13.85-30.933-30.933c0-17.084,13.849-30.933,30.933-30.933
			c17.083,0,30.933,13.849,30.933,30.933C546.483,311.451,532.633,325.301,515.55,325.301z"/>
	</g>
</g>
<g id="Shape_151_copy_4" opacity="0.2">
	<g>
		<path fill-rule="evenodd" clip-rule="evenodd" fill="#363738" d="M515.548,271.23c-12.78,0-23.141,10.36-23.141,23.142
			c0,12.78,10.36,23.141,23.141,23.141s23.142-10.36,23.142-23.141C538.69,281.591,528.329,271.23,515.548,271.23z M515.549,313.139
			c-10.365,0-18.768-8.402-18.768-18.767c0-10.365,8.402-18.768,18.768-18.768c10.364,0,18.767,8.402,18.767,18.768
			C534.316,304.736,525.914,313.139,515.549,313.139z"/>
	</g>
</g>
</svg>
